<svg viewBox="0 0 364 346" fill="none" xmlns="http://www.w3.org/2000/svg">
<g filter="url(#filter0_f)">
<path d="M298.188 41.0519C299.144 40.6436 299.773 39.7451 299.832 38.7059C299.889 37.6664 299.363 36.7047 298.457 36.1932L290.402 31.6476C290.059 31.4539 289.833 31.1041 289.799 30.7113L288.979 21.4937C288.888 20.4582 288.227 19.5811 287.258 19.2059C286.29 18.831 285.211 19.0348 284.445 19.7386L277.632 26.0021C277.342 26.2692 276.939 26.3755 276.555 26.2878L267.539 24.2248C266.526 23.9926 265.488 24.3497 264.831 25.157C264.174 25.9645 264.034 27.0526 264.466 27.9981L268.309 36.4138C268.473 36.7729 268.451 37.1898 268.248 37.5275L263.498 45.4711C263.079 46.1699 262.993 46.9743 263.255 47.7361C263.661 48.9226 264.869 49.7038 266.133 49.5579L275.322 48.4959C275.706 48.4519 276.107 48.6088 276.361 48.8981L282.44 55.8705C282.735 56.21 283.093 56.4622 283.501 56.6204C284.248 56.9092 285.083 56.851 285.793 56.4614C286.501 56.0747 286.979 55.4206 287.139 54.6231L288.975 45.5513C289.053 45.1648 289.317 44.842 289.68 44.6868L298.188 41.0519Z" fill="url(#paint0_linear)" fill-opacity="0.15"/>
</g>
<g filter="url(#filter1_f)">
<path d="M290.034 38.5249C290.519 38.3176 290.839 37.8614 290.868 37.3338C290.898 36.806 290.63 36.3177 290.171 36.058L286.081 33.7501C285.907 33.6518 285.792 33.4742 285.775 33.2748L285.358 28.5948C285.312 28.069 284.977 27.6237 284.485 27.4332C283.993 27.2428 283.445 27.3463 283.057 27.7037L279.597 30.8838C279.45 31.0194 279.245 31.0734 279.05 31.0288L274.473 29.9814C273.958 29.8635 273.432 30.0448 273.098 30.4547C272.764 30.8647 272.693 31.4172 272.913 31.8972L274.864 36.17C274.947 36.3523 274.936 36.564 274.833 36.7355L272.421 40.7686C272.208 41.1234 272.165 41.5318 272.298 41.9186C272.504 42.521 273.117 42.9176 273.759 42.8436L278.424 42.3043C278.619 42.282 278.823 42.3617 278.952 42.5086L282.038 46.0486C282.188 46.2209 282.37 46.349 282.577 46.4293C282.956 46.576 283.38 46.5464 283.741 46.3486C284.1 46.1523 284.343 45.8202 284.424 45.4153L285.356 40.8093C285.396 40.6131 285.53 40.4492 285.714 40.3704L290.034 38.5249Z" fill="url(#paint1_linear)" fill-opacity="0.35"/>
</g>
<g filter="url(#filter2_f)">
<path d="M55.584 291.888C55.019 291.709 54.4127 291.863 54.0009 292.291C53.5894 292.719 53.459 293.33 53.6603 293.888L55.4506 298.849C55.5268 299.061 55.4942 299.296 55.3631 299.478L52.2882 303.767C51.9426 304.249 51.9017 304.874 52.181 305.396C52.4601 305.919 53.0022 306.232 53.5948 306.212L58.8697 306.04C59.0945 306.032 59.3083 306.136 59.4416 306.317L62.5709 310.563C62.9224 311.04 63.5037 311.272 64.0882 311.168C64.6725 311.063 65.1376 310.645 65.3027 310.075L66.7724 305.008C66.8352 304.792 67.0001 304.62 67.2131 304.549L72.2214 302.883C72.6625 302.737 72.9988 302.422 73.1691 301.995C73.435 301.331 73.2035 300.544 72.6028 300.137L68.2364 297.177C68.0541 297.054 67.9392 296.837 67.937 296.617L67.9035 291.342C67.902 291.085 67.8412 290.843 67.7235 290.623C67.5084 290.221 67.1255 289.935 66.6737 289.839C66.2241 289.743 65.7742 289.848 65.4083 290.133L61.2399 293.371C61.0623 293.509 60.8282 293.55 60.6137 293.482L55.584 291.888Z" fill="url(#paint2_linear)" fill-opacity="0.15"/>
</g>
<g filter="url(#filter3_f)">
<path d="M185.5 268.5L201.5 170L295 135L282 41" stroke="url(#paint3_linear)"/>
</g>
<g filter="url(#filter4_f)">
<path d="M58.1681 296.014C57.8812 295.923 57.5734 296.001 57.3643 296.218C57.1554 296.435 57.0892 296.746 57.1914 297.029L58.1004 299.548C58.1391 299.655 58.1225 299.775 58.0559 299.867L56.4947 302.045C56.3193 302.29 56.2985 302.607 56.4403 302.872C56.582 303.137 56.8573 303.296 57.1581 303.286L59.8363 303.199C59.9504 303.195 60.059 303.248 60.1267 303.34L61.7155 305.495C61.894 305.738 62.1891 305.855 62.4859 305.802C62.7825 305.749 63.0187 305.537 63.1025 305.248L63.8487 302.675C63.8806 302.565 63.9643 302.478 64.0724 302.442L66.6152 301.596C66.8392 301.522 67.01 301.362 67.0964 301.145C67.2314 300.808 67.1139 300.408 66.8089 300.202L64.592 298.699C64.4994 298.636 64.4411 298.526 64.4399 298.415L64.4229 295.736C64.4222 295.606 64.3913 295.483 64.3315 295.371C64.2224 295.167 64.028 295.022 63.7985 294.973C63.5703 294.925 63.3419 294.978 63.1561 295.123L61.0397 296.767C60.9495 296.837 60.8307 296.858 60.7218 296.823L58.1681 296.014Z" fill="url(#paint4_linear)" fill-opacity="0.35"/>
</g>
<g filter="url(#filter5_f)">
<path d="M180.307 269.914C180.02 269.823 179.712 269.901 179.503 270.118C179.294 270.336 179.228 270.646 179.33 270.93L180.239 273.448C180.278 273.556 180.261 273.675 180.194 273.768L178.633 275.945C178.458 276.19 178.437 276.507 178.579 276.773C178.721 277.038 178.996 277.197 179.297 277.187L181.975 277.099C182.089 277.095 182.198 277.148 182.265 277.24L183.854 279.396C184.033 279.638 184.328 279.756 184.624 279.703C184.921 279.65 185.157 279.437 185.241 279.148L185.987 276.575C186.019 276.466 186.103 276.378 186.211 276.343L188.754 275.497C188.978 275.422 189.149 275.262 189.235 275.045C189.37 274.708 189.252 274.309 188.947 274.102L186.731 272.6C186.638 272.537 186.58 272.427 186.578 272.315L186.561 269.637C186.561 269.507 186.53 269.384 186.47 269.272C186.361 269.067 186.167 268.922 185.937 268.874C185.709 268.825 185.48 268.878 185.295 269.023L183.178 270.667C183.088 270.737 182.969 270.758 182.86 270.724L180.307 269.914Z" fill="url(#paint5_linear)" fill-opacity="0.35"/>
</g>
<g filter="url(#filter6_f)">
<path d="M202.92 164.328C202.817 164.045 202.568 163.849 202.268 163.815C201.969 163.782 201.682 163.918 201.52 164.172L200.075 166.427C200.014 166.523 199.909 166.582 199.795 166.586L197.117 166.673C196.816 166.683 196.552 166.86 196.427 167.134C196.303 167.408 196.345 167.723 196.536 167.956L198.236 170.027C198.309 170.115 198.333 170.233 198.301 170.343L197.559 172.916C197.475 173.205 197.562 173.51 197.784 173.714C198.007 173.917 198.319 173.975 198.6 173.865L201.095 172.89C201.201 172.849 201.321 172.862 201.416 172.926L203.635 174.428C203.83 174.561 204.061 174.598 204.286 174.535C204.636 174.437 204.881 174.1 204.859 173.733L204.701 171.059C204.695 170.947 204.747 170.834 204.834 170.765L206.948 169.121C207.051 169.041 207.13 168.942 207.182 168.826C207.278 168.615 207.275 168.373 207.174 168.161C207.073 167.95 206.892 167.802 206.664 167.742L204.071 167.065C203.961 167.036 203.872 166.954 203.833 166.847L202.92 164.328Z" fill="url(#paint6_linear)" fill-opacity="0.45"/>
</g>
<g filter="url(#filter7_f)">
<path d="M296.751 129.179C296.648 128.896 296.399 128.699 296.099 128.666C295.8 128.632 295.513 128.769 295.35 129.022L293.906 131.277C293.844 131.373 293.74 131.433 293.625 131.436L290.948 131.524C290.647 131.534 290.382 131.71 290.258 131.984C290.134 132.258 290.176 132.574 290.367 132.806L292.067 134.877C292.139 134.965 292.164 135.084 292.132 135.193L291.39 137.766C291.306 138.055 291.392 138.361 291.615 138.564C291.838 138.767 292.15 138.825 292.43 138.716L294.926 137.741C295.032 137.699 295.152 137.713 295.247 137.777L297.466 139.279C297.661 139.411 297.892 139.449 298.117 139.386C298.466 139.288 298.712 138.951 298.69 138.583L298.532 135.91C298.525 135.798 298.577 135.685 298.665 135.616L300.779 133.972C300.882 133.892 300.961 133.792 301.013 133.677C301.109 133.466 301.105 133.223 301.004 133.012C300.904 132.801 300.723 132.652 300.495 132.593L297.902 131.915C297.792 131.886 297.703 131.805 297.664 131.697L296.751 129.179Z" fill="url(#paint7_linear)" fill-opacity="0.65"/>
</g>
<defs>
<filter id="filter0_f" x="244.546" y="0.382324" width="72.3375" height="71.4496" filterUnits="userSpaceOnUse" color-interpolation-filters="sRGB">
<feFlood flood-opacity="0" result="BackgroundImageFix"/>
<feBlend mode="normal" in="SourceGraphic" in2="BackgroundImageFix" result="shape"/>
<feGaussianBlur stdDeviation="6" result="effect1_foregroundBlur"/>
</filter>
<filter id="filter1_f" x="264.891" y="19.9688" width="32.5419" height="32.0912" filterUnits="userSpaceOnUse" color-interpolation-filters="sRGB">
<feFlood flood-opacity="0" result="BackgroundImageFix"/>
<feBlend mode="normal" in="SourceGraphic" in2="BackgroundImageFix" result="shape"/>
<feGaussianBlur stdDeviation="2" result="effect1_foregroundBlur"/>
</filter>
<filter id="filter2_f" x="35.1016" y="274.148" width="52.3904" height="52.7542" filterUnits="userSpaceOnUse" color-interpolation-filters="sRGB">
<feFlood flood-opacity="0" result="BackgroundImageFix"/>
<feBlend mode="normal" in="SourceGraphic" in2="BackgroundImageFix" result="shape"/>
<feGaussianBlur stdDeviation="6" result="effect1_foregroundBlur"/>
</filter>
<filter id="filter3_f" x="183.006" y="38.9314" width="114.544" height="231.649" filterUnits="userSpaceOnUse" color-interpolation-filters="sRGB">
<feFlood flood-opacity="0" result="BackgroundImageFix"/>
<feBlend mode="normal" in="SourceGraphic" in2="BackgroundImageFix" result="shape"/>
<feGaussianBlur stdDeviation="1" result="effect1_foregroundBlur"/>
</filter>
<filter id="filter4_f" x="49.8613" y="289.1" width="22.4144" height="22.5991" filterUnits="userSpaceOnUse" color-interpolation-filters="sRGB">
<feFlood flood-opacity="0" result="BackgroundImageFix"/>
<feBlend mode="normal" in="SourceGraphic" in2="BackgroundImageFix" result="shape"/>
<feGaussianBlur stdDeviation="2" result="effect1_foregroundBlur"/>
</filter>
<filter id="filter5_f" x="175" y="266" width="16.4144" height="16.5991" filterUnits="userSpaceOnUse" color-interpolation-filters="sRGB">
<feFlood flood-opacity="0" result="BackgroundImageFix"/>
<feBlend mode="normal" in="SourceGraphic" in2="BackgroundImageFix" result="shape"/>
<feGaussianBlur stdDeviation="0.5" result="effect1_foregroundBlur"/>
</filter>
<filter id="filter6_f" x="193.169" y="161.149" width="16.0761" height="16.3002" filterUnits="userSpaceOnUse" color-interpolation-filters="sRGB">
<feFlood flood-opacity="0" result="BackgroundImageFix"/>
<feBlend mode="normal" in="SourceGraphic" in2="BackgroundImageFix" result="shape"/>
<feGaussianBlur stdDeviation="0.5" result="effect1_foregroundBlur"/>
</filter>
<filter id="filter7_f" x="287" y="126" width="16.0761" height="16.3002" filterUnits="userSpaceOnUse" color-interpolation-filters="sRGB">
<feFlood flood-opacity="0" result="BackgroundImageFix"/>
<feBlend mode="normal" in="SourceGraphic" in2="BackgroundImageFix" result="shape"/>
<feGaussianBlur stdDeviation="0.5" result="effect1_foregroundBlur"/>
</filter>
<linearGradient id="paint0_linear" x1="287.258" y1="19.2057" x2="274.172" y2="53.0086" gradientUnits="userSpaceOnUse">
<stop stop-color="#FFEB63"/>
<stop offset="1" stop-color="#E0FF63" stop-opacity="0.63"/>
</linearGradient>
<linearGradient id="paint1_linear" x1="284.484" y1="27.4331" x2="277.84" y2="44.5955" gradientUnits="userSpaceOnUse">
<stop stop-color="#FFEB63"/>
<stop offset="1" stop-color="#E0FF63" stop-opacity="0.63"/>
</linearGradient>
<linearGradient id="paint2_linear" x1="52.1811" y1="305.397" x2="70.4123" y2="295.655" gradientUnits="userSpaceOnUse">
<stop stop-color="#FFEB63"/>
<stop offset="1" stop-color="#E0FF63" stop-opacity="0.63"/>
</linearGradient>
<linearGradient id="paint3_linear" x1="287.5" y1="39" x2="178.5" y2="273" gradientUnits="userSpaceOnUse">
<stop stop-color="#688850"/>
<stop offset="1" stop-color="#50784B"/>
</linearGradient>
<linearGradient id="paint4_linear" x1="56.4404" y1="302.872" x2="65.6967" y2="297.926" gradientUnits="userSpaceOnUse">
<stop stop-color="#FFEB63"/>
<stop offset="1" stop-color="#E0FF63" stop-opacity="0.63"/>
</linearGradient>
<linearGradient id="paint5_linear" x1="178.579" y1="276.773" x2="187.835" y2="271.827" gradientUnits="userSpaceOnUse">
<stop stop-color="#FFEB63"/>
<stop offset="1" stop-color="#E0FF63" stop-opacity="0.63"/>
</linearGradient>
<linearGradient id="paint6_linear" x1="196.427" y1="167.134" x2="205.987" y2="171.465" gradientUnits="userSpaceOnUse">
<stop stop-color="#FFEB63"/>
<stop offset="1" stop-color="#E0FF63" stop-opacity="0.63"/>
</linearGradient>
<linearGradient id="paint7_linear" x1="290.258" y1="131.985" x2="299.818" y2="136.315" gradientUnits="userSpaceOnUse">
<stop stop-color="#FFEB63"/>
<stop offset="1" stop-color="#E0FF63" stop-opacity="0.63"/>
</linearGradient>
</defs>
</svg>
