<svg viewBox="0 0 964 449" fill="none" xmlns="http://www.w3.org/2000/svg">
<g filter="url(#filter0_f)">
<path d="M936.306 375.888C939.333 367.813 940.678 358.728 938.66 350.653C934.625 331.474 912.431 317.005 893.263 313.977C899.652 305.565 897.635 292.106 889.564 285.713C881.494 278.984 869.388 274.61 862.326 282.685C867.707 267.544 872.751 250.72 866.362 235.915C859.972 221.11 841.814 207.315 833.743 221.447C845.176 188.136 849.884 151.797 841.814 117.14C833.743 82.8199 812.222 50.8549 780.948 34.7042C749.675 18.5535 708.65 20.2358 681.412 42.7795C654.174 65.3233 652.492 106.709 672.333 135.983C656.528 131.609 638.033 140.357 630.971 155.162C623.909 169.966 628.953 189.818 642.404 199.24C634.67 198.23 626.936 202.604 623.909 210.007C621.892 215.39 623.573 225.148 627.608 231.541C604.069 206.306 564.389 196.884 532.443 210.007C498.48 223.802 480.657 252.402 484.693 289.078C461.826 265.861 422.482 261.151 394.572 277.974C366.661 294.798 355.564 334.502 364.644 365.794C357.582 356.036 339.759 359.737 333.034 369.832C331.689 364.785 326.309 361.083 321.265 362.093C316.22 362.766 315.884 368.149 316.557 373.196C310.84 361.083 297.725 353.008 284.275 354.017C270.824 354.69 254.683 362.429 250.647 375.215C178.349 355.7 98.6524 403.479 24 403.479H88.5642C111.431 413.573 135.306 422.994 160.19 424.677C187.428 426.696 214.666 418.957 240.559 409.872C244.594 415.928 254.346 418.62 261.744 417.947C269.142 416.938 275.532 411.554 277.885 404.488C291.336 417.611 313.194 421.312 330.344 413.573C377.422 430.397 430.553 428.378 476.622 408.19C511.931 426.359 556.655 426.696 592.972 410.881C608.105 426.359 635.343 422.658 650.811 407.517C682.084 412.9 714.367 419.63 745.64 415.592C766.152 424.677 795.744 418.957 814.912 407.18C834.416 421.312 861.99 422.994 884.184 413.237C894.272 417.611 907.05 419.63 917.475 416.938C928.236 414.246 937.651 405.834 939.669 395.067C940.678 388.001 939.333 381.608 936.306 375.888Z" fill="white" fill-opacity="0.3"/>
</g>
<defs>
<filter id="filter0_f" x="0" y="0" width="964" height="449" filterUnits="userSpaceOnUse" color-interpolation-filters="sRGB">
<feFlood flood-opacity="0" result="BackgroundImageFix"/>
<feBlend mode="normal" in="SourceGraphic" in2="BackgroundImageFix" result="shape"/>
<feGaussianBlur stdDeviation="12" result="effect1_foregroundBlur"/>
</filter>
</defs>
</svg>
