<svg viewBox="0 0 645 229" fill="none" xmlns="http://www.w3.org/2000/svg">
<g filter="url(#filter0_f)">
<path d="M561.27 171.1C545.664 166.124 532.555 160.215 520.071 171.1C522.88 153.684 525.065 135.336 520.071 118.231C515.077 101.127 501.032 85.577 483.241 84.0221C470.444 83.0891 456.399 91.7969 451.717 103.304C450.156 96.4617 445.787 90.2419 439.544 87.132C429.244 81.8451 415.199 85.266 408.332 94.5958C412.078 84.644 406.772 71.8934 396.472 67.8505C386.484 63.8076 381.49 63.4966 377.433 73.4483C345.597 24.3116 276.931 2.54218 222.622 24.6226C168.314 46.703 134.605 110.767 147.09 167.99C143.968 153.995 128.363 144.354 114.317 147.464C100.272 150.574 88.7235 166.435 91.8447 180.43C87.4751 169.234 72.4934 166.124 60.945 169.545C49.3966 172.966 40.0331 181.052 29.7332 186.96C25.0514 189.448 20.6818 191.625 16 193.18C63.442 193.18 88.7235 201.888 120.872 198.778C129.299 204.065 139.287 205.62 148.962 203.443C154.58 202.199 160.199 199.4 166.129 200.022C171.435 200.644 176.117 203.754 181.11 206.242C200.462 215.883 225.119 214.328 242.598 201.577C280.676 217.749 324.997 216.505 362.763 199.4C372.439 209.041 390.854 207.486 401.466 198.778C445.787 214.328 494.477 213.395 537.862 195.357C558.461 204.065 576.564 192.869 629 192.869C606.215 185.716 583.743 178.253 561.27 171.1Z" fill="white" fill-opacity="0.3"/>
</g>
<defs>
<filter id="filter0_f" x="0" y="0" width="645" height="229" filterUnits="userSpaceOnUse" color-interpolation-filters="sRGB">
<feFlood flood-opacity="0" result="BackgroundImageFix"/>
<feBlend mode="normal" in="SourceGraphic" in2="BackgroundImageFix" result="shape"/>
<feGaussianBlur stdDeviation="8" result="effect1_foregroundBlur"/>
</filter>
</defs>
</svg>
