<svg  viewBox="0 0 123 175" fill="none" xmlns="http://www.w3.org/2000/svg">
<path d="M85.0512 24.1828C84.5339 24.7 83.8441 24.7 83.3269 24.1828C82.8096 23.6655 82.6371 22.9758 83.1544 22.4585C83.6717 21.9413 84.3614 21.9413 84.8787 22.4585C85.396 22.9758 85.5684 23.8379 85.0512 24.1828Z" fill="#D3E1D9"/>
<path d="M108.674 35.0454C108.157 35.5626 107.467 35.5626 106.95 35.0454C106.433 34.5281 106.26 33.8384 106.777 33.3212C107.295 32.8039 107.984 32.8039 108.502 33.3212C109.019 33.8384 109.191 34.5281 108.674 35.0454Z" fill="#D3E1D9"/>
<path d="M65.5666 5.21629C65.0493 5.73355 64.1871 5.90597 63.4974 5.38871C62.9801 4.87144 62.8077 4.00933 63.325 3.31964C63.8422 2.80237 64.7044 2.62995 65.3941 3.14722C66.0838 3.83691 66.0839 4.69902 65.5666 5.21629Z" fill="#D3E1D9"/>
<path d="M73.8432 12.6305C73.4983 13.1477 72.8086 13.1477 72.2913 12.8029C71.9465 12.458 71.774 11.7683 72.2913 11.2511C72.6362 10.7338 73.3259 10.7338 73.8432 11.0787C74.1881 11.5959 74.3605 12.2856 73.8432 12.6305Z" fill="#D3E1D9"/>
<path d="M114.364 35.3902C113.847 35.9075 112.985 35.9075 112.468 35.3902C111.95 34.873 111.778 34.0108 112.295 33.4936C112.812 32.9763 113.675 32.9763 114.192 33.4936C114.882 34.0108 114.882 34.873 114.364 35.3902Z" fill="#D3E1D9"/>
<path d="M122.124 37.9766C121.606 38.4938 120.917 38.4938 120.227 37.9766C119.71 37.4593 119.537 36.5972 120.054 36.0799C120.572 35.5626 121.261 35.5626 121.951 36.0799C122.469 36.5972 122.468 37.4593 122.124 37.9766Z" fill="#D3E1D9"/>
<path d="M43.1506 103.842C55.3932 83.1513 69.7049 63.4951 81.775 43.1492L82.4647 43.4941C70.3946 64.0124 56.0829 83.6685 43.8404 104.187C30.0459 127.119 19.3553 152.638 1.42254 172.983L0.905256 172.466C18.6656 152.293 29.3562 126.774 43.1506 103.842Z" fill="#D3E1D9"/>
<path d="M79.1885 41.425C70.3946 32.2866 64.532 16.5962 64.0147 4.18175H64.7044C65.2217 16.4237 71.0843 31.9418 79.7058 40.9077C79.8782 41.0802 80.0507 41.2526 80.2231 41.425C84.3614 45.2183 92.2932 46.4253 100.225 45.5631C108.157 44.701 116.089 41.9423 119.882 37.6317C120.227 37.2869 120.399 36.942 120.572 36.7696L121.089 37.1144C120.917 37.4593 120.572 37.8041 120.227 38.149C116.089 42.632 108.157 45.3907 100.053 46.2528C91.9484 47.115 83.8442 45.908 79.361 41.7699C79.5334 41.7699 79.361 41.5974 79.1885 41.425Z" fill="#D3E1D9"/>
<path d="M78.154 40.3905C72.2913 33.3212 70.2222 20.217 72.8086 11.7683L73.4983 11.9408C71.0843 20.0446 73.1535 33.1487 78.6712 39.8732C79.0161 40.3905 79.5334 40.7353 79.8783 41.2526C88.6722 49.5289 105.915 41.425 112.985 34.1833L113.502 34.7005C106.26 42.1147 88.8446 50.391 79.361 41.7699C79.0161 41.425 78.4988 40.9077 78.154 40.3905Z" fill="#D3E1D9"/>
<path d="M80.3955 41.5974C77.6367 36.5972 81.9474 27.6312 83.8442 23.1482L84.5339 23.4931C82.6371 27.9761 78.4988 36.942 81.0853 41.2526C81.4301 41.9423 81.775 42.2871 82.2923 42.8044C85.0512 45.3907 90.2241 44.0113 95.2245 41.5974C100.225 39.0111 105.225 35.3902 107.64 33.8384L107.984 34.5281C105.57 36.0799 100.57 39.7008 95.397 42.2871C90.2241 44.8735 84.8787 46.4253 81.6025 43.4941C81.0853 42.9768 80.7404 42.2871 80.3955 41.5974Z" fill="#D3E1D9"/>
<path d="M0.387968 173.845C-0.129323 173.328 -0.129323 172.294 0.387968 171.776C1.07769 171.087 1.76741 170.225 2.45713 169.535C6.76788 164.88 10.3889 159.707 12.9754 154.017C13.3202 153.327 14.1824 152.982 14.8721 153.327C15.5618 153.672 15.9067 154.534 15.5618 155.224C12.8029 161.259 8.83704 166.604 4.52629 171.432C3.83657 172.294 3.14685 172.983 2.2847 173.845C1.93984 174.363 1.07769 174.363 0.387968 173.845Z" fill="#D3E1D9"/>
<path d="M66.6011 4.5266C65.9114 6.25082 64.0147 7.28535 62.2904 6.59566C60.5661 5.90597 59.5315 4.00933 60.2212 2.2851C60.9109 0.560878 62.8077 -0.473658 64.532 0.216032C66.2563 0.7333 67.2909 2.62995 66.6011 4.5266Z" fill="#D3E1D9"/>
<path d="M88.3273 25.3897C87.6376 27.1139 85.7409 28.1485 84.0166 27.4588C82.2923 26.7691 81.2577 24.8725 81.9474 23.1482C82.6371 21.424 84.5339 20.3895 86.2582 21.0792C87.9825 21.5964 88.8446 23.6655 88.3273 25.3897Z" fill="#D3E1D9"/>
<path d="M104.191 35.3902C102.984 33.8384 103.329 31.7693 104.708 30.5624C106.26 29.3554 108.329 29.7003 109.364 31.0797C110.571 32.6315 110.226 34.7005 108.847 35.9075C107.467 37.1144 105.225 36.7696 104.191 35.3902Z" fill="#D3E1D9"/>
</svg>
