<svg viewBox="0 0 135 73" fill="none" xmlns="http://www.w3.org/2000/svg">
<path d="M123.762 55.6019C123.072 55.257 122.899 54.5673 123.072 53.8776C123.417 53.188 124.106 53.0155 124.796 53.3604C125.486 53.7052 125.658 54.3949 125.486 55.0846C125.141 55.6019 124.451 55.9467 123.762 55.6019Z" fill="#D3E1D9"/>
<path d="M117.899 66.2921C117.209 65.9472 117.037 65.0851 117.382 64.223C117.726 63.3609 118.589 63.1885 119.278 63.5333C119.968 63.8781 120.14 64.7403 119.796 65.6024C119.451 66.2921 118.589 66.6369 117.899 66.2921Z" fill="#D3E1D9"/>
<path d="M122.555 50.4292C121.865 50.0844 121.692 49.2222 122.037 48.3601C122.382 47.6704 123.244 47.3256 123.934 47.6704C124.624 48.0153 124.796 48.8774 124.451 49.7395C124.279 50.4292 123.244 50.774 122.555 50.4292Z" fill="#D3E1D9"/>
<path d="M115.312 72.8441C114.623 72.4993 114.45 71.6372 114.795 70.775C115.14 70.0854 116.002 69.7405 116.692 70.0854C117.382 70.4302 117.554 71.2923 117.209 72.1544C116.864 72.8441 116.002 73.189 115.312 72.8441Z" fill="#D3E1D9"/>
<path d="M130.659 41.2908C129.969 40.946 129.797 40.2563 129.969 39.5666C130.314 38.8769 131.004 38.7045 131.693 39.0493C132.383 39.3942 132.555 40.0839 132.383 40.7735C132.211 41.2908 131.348 41.6357 130.659 41.2908Z" fill="#D3E1D9"/>
<path d="M2.02586 2.1509C2.19829 1.97848 2.37073 1.80606 2.54316 1.97848C2.88802 2.15091 3.23288 2.32333 3.57774 2.49575C21.1656 11.2893 39.788 15.7723 57.5484 24.3934C63.411 27.1522 69.1012 30.0833 74.9638 33.0145C87.2064 39.2217 99.2764 45.429 111.347 51.6362C111.519 51.8086 111.691 51.981 111.519 52.1534C111.347 52.3258 111.174 52.4983 111.002 52.3259C98.7591 46.1186 86.6891 39.9114 74.619 33.7042C68.9288 30.773 63.0661 27.8419 57.2035 25.0831C39.6156 16.462 20.9932 12.1514 3.23286 3.18544C2.888 3.01302 2.54317 2.84059 2.19831 2.66817C2.02588 2.49575 1.85343 2.32333 2.02586 2.1509Z" fill="#D3E1D9"/>
<path d="M131.348 39.739C131.521 39.739 131.693 40.0839 131.693 40.2563C131.693 40.4287 131.348 40.6011 131.176 40.6011C123.934 38.1872 115.14 45.0841 111.174 53.188C109.45 56.464 108.588 60.0849 108.933 63.1885C109.277 66.2921 110.829 68.8784 113.933 70.4302C114.623 70.7751 115.312 71.1199 116.175 71.2923C116.347 71.2923 116.519 71.6372 116.519 71.8096C116.519 71.982 116.175 72.1544 116.002 72.1544C115.14 71.8096 114.278 71.6372 113.588 71.1199C110.14 69.3957 108.415 66.4645 108.07 63.1885C107.726 59.9124 108.588 56.2916 110.312 52.8431C114.45 44.3944 123.417 37.1527 131.348 39.739Z" fill="#D3E1D9"/>
<path d="M110.829 51.6362C113.071 48.0153 119.278 46.4635 122.899 48.3601C123.072 48.5326 123.244 48.5325 123.417 48.705C123.589 48.8774 123.589 49.0498 123.589 49.3947C123.417 49.5671 123.244 49.5671 122.899 49.5671C122.727 49.3947 122.555 49.3947 122.382 49.2222C119.278 47.498 113.243 49.0498 111.347 52.1534C111.174 52.3258 111.174 52.6707 111.002 52.8431C109.795 55.4295 110.312 57.4985 111.864 59.3952C113.416 61.2918 116.002 63.016 118.416 64.5678C118.589 64.7403 118.761 64.9127 118.589 65.0851C118.416 65.2575 118.244 65.43 118.071 65.2575C115.657 63.7057 112.898 61.9815 111.174 59.9124C109.45 57.8434 108.76 55.257 110.14 52.4983C110.657 51.981 110.829 51.8086 110.829 51.6362Z" fill="#D3E1D9"/>
<path d="M111.347 51.4637C114.795 52.8431 118.933 51.6362 122.727 53.5328C123.244 53.7052 123.589 54.0501 124.106 54.3949C124.279 54.5673 124.279 54.7398 124.106 55.0846C123.934 55.257 123.762 55.257 123.417 55.0846C123.072 54.7398 122.555 54.5673 122.21 54.2225C118.761 52.4983 114.795 53.7052 111.002 52.3259C110.829 52.3259 110.657 51.981 110.829 51.8086C111.002 51.4637 111.174 51.2913 111.347 51.4637Z" fill="#D3E1D9"/>
<path d="M3.40531 0.943948C5.12962 1.80606 6.68148 2.66817 8.23335 3.35786C9.0955 3.70271 9.78523 4.21998 10.6474 4.56482C13.0614 5.77178 16.1651 6.11662 19.2689 7.66842C19.7862 7.84085 20.3035 8.18569 20.6483 8.53054C21.5105 9.04781 21.6829 10.0823 21.1656 10.9445C20.6483 11.8066 19.6137 11.979 18.7516 11.4617C18.4067 11.2893 18.0619 10.9444 17.717 10.772C15.303 9.56507 12.1992 9.22023 9.0955 7.66842C8.23335 7.32358 7.37119 6.80631 6.50904 6.46147C4.95717 5.59935 3.40531 4.73724 1.85343 4.04755C0.991284 3.70271 0.646422 2.66817 0.991282 1.80606C1.50857 0.771523 2.54316 0.426681 3.40531 0.943948Z" fill="#D3E1D9"/>
<path d="M129.452 41.4632C128.59 40.2563 128.762 38.532 129.969 37.6699C131.176 36.8078 132.9 36.9802 133.762 38.1872C134.625 39.3942 134.452 41.1184 133.245 41.9805C132.038 42.8426 130.314 42.6702 129.452 41.4632Z" fill="#D3E1D9"/>
<path d="M116.519 66.4645C115.657 65.2575 115.83 63.5333 117.037 62.6712C118.244 61.8091 119.968 61.9815 120.83 63.1885C121.692 64.3954 121.52 66.1196 120.313 66.9818C119.106 67.8439 117.382 67.6714 116.519 66.4645Z" fill="#D3E1D9"/>
</svg>
