<svg viewBox="0 0 109 175" fill="none" xmlns="http://www.w3.org/2000/svg">
<g filter="url(#filter0_f)">
<path d="M62.4933 18.4217C62.6575 19.2234 63.27 19.7664 63.9772 19.9559C64.7791 19.7919 65.3222 19.1796 65.158 18.3779C64.9939 17.5761 64.3814 17.0331 63.6742 16.8436C62.9669 16.6541 62.4239 17.2664 62.4933 18.4217Z" fill="#E7EBD6"/>
<path d="M48.532 19.6063C48.6962 20.4081 49.3087 20.9511 50.3695 21.2354C51.525 21.1661 52.0681 20.5538 51.9987 19.3985C51.8345 18.5968 51.222 18.0537 50.1612 17.7695C49.3592 17.9335 48.3678 18.8046 48.532 19.6063Z" fill="#E7EBD6"/>
<path d="M67.2291 21.964C67.3933 22.7658 68.0058 23.3087 69.0666 23.593C70.2222 23.5237 70.7652 22.9115 70.6957 21.7562C70.5316 20.9544 69.9191 20.4114 68.8583 20.1271C68.0563 20.2911 67.1597 20.8087 67.2291 21.964Z" fill="#E7EBD6"/>
<path d="M40.279 19.2894C40.4432 20.0912 41.0556 20.6342 42.1165 20.9185C43.272 20.8492 43.8151 20.2369 43.7457 19.0816C43.5815 18.2798 42.969 17.7368 41.9082 17.4526C41.1062 17.6166 40.5632 18.2289 40.279 19.2894Z" fill="#E7EBD6"/>
<path d="M80.5338 17.5722C80.6979 18.374 81.3104 18.917 82.0176 19.1065C82.8196 18.9425 83.3626 18.3302 83.1985 17.5284C83.0343 16.7266 82.4218 16.1836 81.7146 15.9941C80.9126 16.1581 80.3696 16.7704 80.5338 17.5722Z" fill="#E7EBD6"/>
<path d="M62.6296 169.258C62.9832 169.352 63.0779 168.999 63.1727 168.645C63.2674 168.292 63.0085 167.843 63.1032 167.49C61.8786 145.186 65.6992 123.855 64.923 101.292C64.601 94.0072 64.2791 86.7219 63.9572 79.4367C63.1492 64.0645 61.9876 48.5975 61.2744 32.8718C61.3691 32.5183 61.0155 32.4236 60.6619 32.3289C60.3083 32.2341 60.2135 32.5876 60.1188 32.9411C60.9268 48.3133 62.0884 63.7803 62.8016 79.506C63.1235 86.7912 63.4455 94.0765 63.7674 101.362C64.6384 123.571 60.8178 144.902 61.9477 167.559C61.8529 167.913 62.1118 168.361 62.0171 168.714C61.9224 169.068 62.276 169.163 62.6296 169.258Z" fill="#E7EBD6"/>
<path d="M82.3965 17.6924C82.4913 17.3389 82.1377 17.2442 81.784 17.1494C81.4304 17.0547 81.3357 17.4082 81.241 17.7617C80.382 26.625 69.3632 32.387 58.9633 33.0104C54.6947 33.3822 50.7103 32.6935 47.4583 30.6855C44.4653 29.1257 42.5584 26.3413 42.1859 22.0737C42.0218 21.2719 42.3059 20.2114 42.1418 19.4097C42.2365 19.0561 41.8829 18.9614 41.5293 18.8666C41.1757 18.7719 41.0809 19.1254 40.9862 19.4789C40.702 20.5395 40.7715 21.6948 40.9356 22.4965C41.3081 26.7642 43.4739 29.9968 46.8206 31.6513C50.0725 33.6593 54.5053 34.0892 58.6791 34.0709C69.6221 32.8352 81.3482 27.2627 82.3965 17.6924Z" fill="#E7EBD6"/>
<path d="M60.7313 33.4842C65.4482 32.8536 69.9821 27.2484 69.7991 22.2737C69.8938 21.9202 69.8938 21.9202 69.6349 21.4719C69.7297 21.1184 69.376 21.0237 69.0224 20.9289C68.6688 20.8342 68.5741 21.1876 68.4794 21.5411C68.4794 21.5411 68.3846 21.8947 68.6435 22.343C69.016 26.6106 64.5769 31.8623 60.6619 32.3289C60.3083 32.2341 60.2136 32.5876 59.8599 32.4928C56.7469 32.7954 54.9094 31.1664 53.3561 28.4768C52.1564 25.882 51.4998 22.6749 50.9378 19.1143C51.0326 18.7608 50.6789 18.666 50.3253 18.5713C49.9717 18.4765 49.877 18.8301 49.7823 19.1836C50.4389 22.3907 51.0008 25.9513 52.2005 28.5461C53.7539 31.2356 55.8502 33.313 59.3169 33.1052C59.9294 33.6482 60.3777 33.3894 60.7313 33.4842Z" fill="#E7EBD6"/>
<path d="M61.1796 33.2254C61.1608 29.0525 64.4191 25.3788 64.2361 20.4042C64.0719 19.6024 64.1666 19.2489 64.0025 18.4471C64.0972 18.0936 63.7436 17.9989 63.39 17.9041C63.0364 17.8094 62.9417 18.1629 62.8469 18.5164C63.1058 18.9647 62.9164 19.6716 63.1753 20.1199C63.5477 24.3875 60.2894 28.0612 60.2135 32.5876C60.1188 32.9411 60.4724 33.0359 60.826 33.1306C60.7313 33.4842 61.1796 33.2254 61.1796 33.2254Z" fill="#E7EBD6"/>
<path d="M64.4229 168.222C64.2841 165.912 64.0504 163.955 64.1705 162.093C64.101 160.937 63.9369 160.135 63.8674 158.98C63.5644 155.868 64.8652 152.427 64.7516 148.608C64.5875 147.806 64.6822 147.453 64.5181 146.651C64.4486 145.496 63.4825 144.858 62.3269 144.927C61.1714 144.996 60.4389 146.316 60.603 147.118C60.8619 147.566 60.7672 147.919 60.5778 148.626C60.8808 151.739 59.6747 154.826 59.6936 158.998C59.763 160.154 59.8324 161.309 59.9966 162.111C60.2302 164.068 60.4638 166.025 60.2491 168.241C60.3185 169.396 61.2846 170.034 62.3454 170.318C63.8546 170.344 64.4924 169.378 64.4229 168.222Z" fill="#E7EBD6"/>
<path d="M79.4477 18.7967C80.2243 20.1415 81.9924 20.6152 83.691 19.9337C85.036 19.1574 85.5096 17.3899 84.8276 15.6916C84.051 14.3468 81.9294 13.7783 80.5844 14.5546C79.2394 15.3309 78.671 17.4519 79.4477 18.7967Z" fill="#E7EBD6"/>
<path d="M47.7995 20.9256C48.5761 22.2704 50.3442 22.7442 52.0428 22.0626C53.3878 21.2863 53.9561 19.1653 53.1795 17.8205C52.4028 16.4757 50.6348 16.002 48.9362 16.6835C47.5912 17.4598 47.0228 19.5809 47.7995 20.9256Z" fill="#E7EBD6"/>
</g>
<defs>
<filter id="filter0_f" x="0" y="0" width="108.263" height="174.731" filterUnits="userSpaceOnUse" color-interpolation-filters="sRGB">
<feFlood flood-opacity="0" result="BackgroundImageFix"/>
<feBlend mode="normal" in="SourceGraphic" in2="BackgroundImageFix" result="shape"/>
<feGaussianBlur stdDeviation="2" result="effect1_foregroundBlur"/>
</filter>
</defs>
</svg>
