<svg viewBox="0 0 121 183" fill="none" xmlns="http://www.w3.org/2000/svg">
<g filter="url(#filter0_f)">
<path d="M14.1917 17.4345C14.5227 17.9387 14.0873 18.8075 13.3211 19.1721C12.5548 19.5367 11.9576 19.0646 11.6266 18.5604C11.2957 18.0562 11.7309 17.1874 12.4972 16.8228C13.2635 16.4582 14.0946 16.6299 14.1917 17.4345Z" fill="#E9E7EF"/>
<path d="M34.8056 0.253C35.1365 0.757197 34.7012 1.62601 33.9349 1.99061C33.1686 2.35522 32.5715 1.88316 32.2405 1.37896C31.9095 0.874749 32.3448 0.00597445 33.1111 -0.358636C33.8773 -0.723247 34.7084 -0.551521 34.8056 0.253Z" fill="#E9E7EF"/>
<path d="M-12.1855 27.1493C-11.8222 27.9217 -12.2575 28.7905 -13.0238 29.1551C-13.7901 29.5197 -14.6534 29.0798 -15.0168 28.3074C-15.3801 27.535 -14.9448 26.6662 -14.1785 26.3016C-13.146 25.9049 -12.2827 26.3448 -12.1855 27.1493Z" fill="#E9E7EF"/>
<path d="M-1.39289 22.5812C-1.06192 23.0854 -1.49719 23.9542 -2.02962 24.0185C-2.52968 24.3509 -3.12684 23.8789 -3.45781 23.3747C-3.78879 22.8705 -3.35352 22.0017 -2.82109 21.9374C-2.28865 21.8731 -1.72387 22.077 -1.39289 22.5812Z" fill="#E9E7EF"/>
<path d="M37.6835 -4.99199C38.0469 -4.21962 37.5792 -3.61898 36.8129 -3.25438C36.0466 -2.88977 35.1832 -3.3297 35.1185 -3.86605C34.7551 -4.63842 35.2229 -5.23906 35.9891 -5.60367C36.4892 -5.93612 37.3202 -5.76437 37.6835 -4.99199Z" fill="#E9E7EF"/>
<path d="M43.4575 -10.8587C43.8209 -10.0864 43.3533 -9.48575 42.587 -9.12114C41.8207 -8.75654 40.9573 -9.19643 40.8925 -9.73277C40.5291 -10.5051 40.9969 -11.1058 41.7631 -11.4704C42.5294 -11.835 43.3604 -11.6633 43.4575 -10.8587Z" fill="#E9E7EF"/>
<path d="M69.4291 92.3898C55.8266 71.4493 43.9905 49.4793 30.1541 28.8392L30.6542 28.5067C44.2243 49.179 56.0928 71.4172 69.9291 92.0573C85.1542 115.251 103.977 136.921 114.935 162.806L114.169 163.171C103.743 137.222 84.6865 115.851 69.4291 92.3898Z" fill="#E9E7EF"/>
<path d="M27.6538 30.5015C15.1668 34.4579 -2.02593 32.9968 -13.718 27.8785L-13.5167 27.31C-1.82457 32.4283 15.1019 33.9216 27.3228 29.9973C27.589 29.9651 27.8553 29.933 28.0891 29.6327C33.4854 27.3486 38.065 20.5377 40.9178 12.847C43.7706 5.15635 44.5981 -3.6502 42.3208 -9.08898C42.256 -9.62532 41.9574 -9.86137 41.925 -10.1295L42.6913 -10.4941C43.0223 -9.98993 43.0546 -9.72175 43.3856 -9.21755C45.6953 -3.51061 44.868 5.29593 42.0475 13.2548C39.2271 21.2137 34.4136 28.3249 28.751 30.6411C28.1862 30.4372 27.9201 30.4693 27.6538 30.5015Z" fill="#E9E7EF"/>
<path d="M26.1212 31.2307C16.9331 33.4284 3.77321 29.5757 -2.92549 23.3104L-2.45774 22.7098C3.94236 28.7391 17.1023 32.5917 25.758 30.4583C26.2904 30.394 27.0566 30.0294 27.5891 29.9651C39.1804 25.3006 39.2449 5.70278 35.8847 -4.23065L36.651 -4.59525C40.3098 5.57421 40.2776 25.4402 27.92 30.4693C27.42 30.8018 26.8875 30.8661 26.1212 31.2307Z" fill="#E9E7EF"/>
<path d="M28.3554 29.6005C22.4338 29.7713 16.0732 21.8327 12.6267 17.8955L13.0944 17.2949C16.2423 20.996 22.8691 28.9025 27.9596 28.56C28.7582 28.4635 29.2906 28.3993 29.7907 28.0668C33.3882 26.5441 34.3704 21.2559 34.4567 15.2597C34.2768 9.29558 33.2658 3.15974 32.9096 0.209833L33.7082 0.113405C34.0644 3.06331 35.1078 9.46731 35.2877 15.4314C35.4676 21.3955 34.5179 26.9518 30.1541 28.8392C29.9527 29.4077 29.1541 29.5041 28.3554 29.6005Z" fill="#E9E7EF"/>
<path d="M115.629 164.083C114.863 164.448 114 164.008 113.636 163.235C113.241 162.195 112.845 161.154 112.449 160.114C110.075 153.87 106.966 148.26 102.858 143.314C102.228 142.574 102.397 141.737 103.131 141.105C103.865 140.472 104.696 140.644 105.326 141.384C109.765 146.834 112.906 152.712 115.579 159.192C115.975 160.232 116.371 161.273 116.766 162.313C116.565 162.882 116.396 163.718 115.629 164.083Z" fill="#E9E7EF"/>
<path d="M-12.3474 25.8084C-11.0883 27.2889 -11.0954 29.4664 -12.297 30.6998C-13.7648 31.9654 -15.927 31.9544 -17.1537 30.7421C-18.4129 29.2616 -18.4057 27.0841 -17.2042 25.8507C-16.035 24.3491 -13.6066 24.328 -12.3474 25.8084Z" fill="#E9E7EF"/>
<path d="M16.8611 14.9355C18.1202 16.416 18.113 18.5935 16.9114 19.8269C15.4436 21.0924 13.2815 21.0814 12.0548 19.8691C10.7956 18.3887 10.8028 16.2111 12.0043 14.9777C13.1735 13.4761 15.3357 13.4872 16.8611 14.9355Z" fill="#E9E7EF"/>
</g>
<defs>
<filter id="filter0_f" x="-26" y="-21.9998" width="146.969" height="204.118" filterUnits="userSpaceOnUse" color-interpolation-filters="sRGB">
<feFlood flood-opacity="0" result="BackgroundImageFix"/>
<feBlend mode="normal" in="SourceGraphic" in2="BackgroundImageFix" result="shape"/>
<feGaussianBlur stdDeviation="2" result="effect1_foregroundBlur"/>
</filter>
</defs>
</svg>
