<svg  viewBox="0 0 56 53" fill="none" xmlns="http://www.w3.org/2000/svg">
<path d="M44.9451 4.44585C44.7726 4.61827 44.7726 4.96312 44.9451 5.13554C45.1175 5.30796 45.4624 5.48039 45.6348 5.13554C45.8072 4.96312 45.8072 4.61827 45.6348 4.44585C45.4624 4.27342 45.1175 4.27342 44.9451 4.44585Z" fill="#D3E1D9"/>
<path d="M42.3586 1.34224C42.1862 1.51466 42.1862 1.8595 42.3586 2.03192C42.531 2.20434 42.8759 2.37676 43.0483 2.03192C43.2208 1.8595 43.2208 1.51466 43.0483 1.34224C42.8759 1.16982 42.531 1.16982 42.3586 1.34224Z" fill="#D3E1D9"/>
<path d="M52.8768 15.6533C52.7044 15.8257 52.532 16.343 52.8768 16.5154C53.0493 16.6878 53.5666 16.8603 53.739 16.5154C53.9114 16.343 54.0839 15.8257 53.739 15.6533C53.3941 15.4809 53.0493 15.4809 52.8768 15.6533Z" fill="#D3E1D9"/>
<path d="M49.9455 12.7221C49.7731 12.8946 49.7731 13.2394 49.9455 13.4118C50.118 13.5842 50.4628 13.5842 50.6353 13.4118C50.8077 13.2394 50.8077 12.8946 50.6353 12.7221C50.4628 12.5497 50.118 12.5497 49.9455 12.7221Z" fill="#D3E1D9"/>
<path d="M37.3581 2.37678C37.1857 2.54921 37.1857 2.89405 37.3581 3.23889C37.5306 3.41131 37.8754 3.58374 38.2203 3.41131C38.3927 3.23889 38.3927 2.89404 38.2203 2.54919C37.8754 2.20435 37.5306 2.20436 37.3581 2.37678Z" fill="#D3E1D9"/>
<path d="M47.1867 10.653C47.0142 10.8255 47.0142 11.1703 47.1867 11.3427C47.3591 11.5152 47.7039 11.6876 47.8764 11.3427C48.0488 11.1703 48.0488 10.8255 47.8764 10.653C47.7039 10.653 47.3591 10.4806 47.1867 10.653Z" fill="#D3E1D9"/>
<path d="M0.458088 52.2069C0.802948 51.862 1.14781 51.6896 1.32024 51.3448C9.94175 43.7582 18.7357 36.5164 27.3572 28.9298C32.5301 24.4469 37.5306 19.7914 42.3586 14.9636V14.7912H42.1862C37.3581 19.619 32.3577 24.2744 27.1848 28.7574C18.5633 36.344 9.76931 43.7582 1.14781 51.1723C0.802948 51.5172 0.458086 51.6896 0.285656 52.0345V52.2069H0.458088Z" fill="#D3E1D9"/>
<path d="M43.0483 15.6533C45.9796 17.7224 50.118 16.8603 53.2217 16.343L53.3941 16.1706L53.2217 15.9982C50.118 16.6878 46.1521 17.5499 43.3932 15.4809C43.0483 15.136 42.7035 14.9636 42.3586 14.6188C39.4273 11.3427 40.9792 5.48038 42.8759 1.85951V1.68709H42.7035C40.6343 5.30796 39.0824 11.1703 42.1862 14.7912C42.3586 14.9636 42.7035 15.3085 43.0483 15.6533Z" fill="#D3E1D9"/>
<path d="M42.7035 15.3085C43.7381 15.8257 45.1175 15.3085 46.4969 14.7912C47.8764 14.2739 49.4282 13.4118 50.118 13.2394L50.2904 13.067L50.118 12.8945C49.2558 13.2394 47.8764 13.9291 46.4969 14.4463C45.1175 14.9636 43.5656 15.3085 42.8759 14.9636C42.7035 14.7912 42.531 14.6188 42.3586 14.6188C41.4965 13.5842 41.8413 11.5152 42.7035 9.61851C43.5656 7.72187 44.7726 5.82523 45.2899 4.96312V4.79068H45.1175C44.6002 5.65279 43.3932 7.54946 42.531 9.44611C41.6689 11.3428 41.1516 13.5842 42.1862 14.7912C42.3586 14.9636 42.531 15.136 42.7035 15.3085Z" fill="#D3E1D9"/>
<path d="M42.3586 14.7912C43.9105 13.9291 45.2899 13.4118 46.6694 12.2049C47.0142 11.86 47.3591 11.5152 47.7039 11.1703V10.9979H47.5315C47.1867 11.3428 46.8418 11.6876 46.4969 12.0324C45.2899 13.067 43.9105 13.7567 42.3586 14.4463C42.3586 14.4463 42.1862 14.6188 42.3586 14.6188C42.1862 14.7912 42.3586 14.7912 42.3586 14.7912Z" fill="#D3E1D9"/>
<path d="M42.1862 14.7912H42.3586L42.3586 14.6188C41.324 14.1015 40.4619 13.2394 39.5997 12.5497C37.3581 9.96336 36.8408 6.51492 37.8754 3.06647C37.8754 3.06647 37.8754 2.89404 37.703 2.89404C37.703 2.89404 37.5306 2.89404 37.5306 3.06647C36.496 6.51492 37.0133 10.1358 39.4273 12.8945C40.117 13.4118 41.1516 14.2739 42.1862 14.7912Z" fill="#D3E1D9"/>
<path d="M0.802948 52.5517C1.49267 52.0344 2.18239 51.5172 2.87211 50.9999C4.42398 49.6205 5.80342 48.0687 7.18286 46.8618C7.35529 46.6894 7.70016 46.5169 7.87259 46.3445C8.21745 46.1721 8.21744 45.6548 8.04501 45.4824C7.87258 45.1376 7.35529 45.1375 7.18286 45.31C7.01043 45.4824 6.66557 45.6548 6.49314 45.9997C4.94127 47.3791 3.56183 48.9308 2.18239 50.1378C1.49267 50.6551 0.975376 51.1723 0.285656 51.6896C-0.0592043 51.862 -0.0592023 52.2069 0.113228 52.5517C0.285658 52.7241 0.458088 52.7241 0.802948 52.5517Z" fill="#D3E1D9"/>
<path d="M52.532 16.343C52.8768 17.0327 53.5666 17.3775 54.2563 17.0327C54.946 16.6879 55.2909 15.9982 54.946 15.3085C54.6011 14.6188 53.9114 14.2739 53.2217 14.6188C52.532 14.9636 52.1871 15.6533 52.532 16.343Z" fill="#D3E1D9"/>
<path d="M41.4965 1.85951C41.8413 2.5492 42.531 2.89404 43.2208 2.54919C43.9105 2.20435 44.2553 1.51467 43.9105 0.82498C43.5656 0.13529 42.8759 -0.209562 42.1862 0.135283C41.6689 0.480128 41.324 1.16982 41.4965 1.85951Z" fill="#D3E1D9"/>
</svg>
