<svg width="27" height="39" viewBox="0 0 27 39" fill="none" xmlns="http://www.w3.org/2000/svg">
<path d="M0.8125 31.6149V7.38509L13.5 0L26.1875 7.38509V31.6149L13.5 39L0.8125 31.6149Z" fill="#62B400"/>
<path d="M13.5 0L26.1875 7.38509V31.6149L13.5 39V0Z" fill="#4C8C00"/>
<path d="M13.5 14.6806L0.8125 7.38535L13.5 0.00109863V14.6806Z" fill="#92E200"/>
<path d="M13.5 24.3206L0.8125 31.6158L13.5 39V24.3206Z" fill="#92E200"/>
<path d="M13.5 14.6803L26.1875 7.38511L13.5 0.000854492V14.6803Z" fill="#62B400"/>
<path d="M13.5 24.3204L26.1875 31.6157L13.5 38.9999V24.3204Z" fill="#62B400"/>
<path d="M13.5 31.8916L20.0439 28.0826V10.9177L13.5 7.10864L6.95605 10.9177V28.0826L13.5 31.8916Z" fill="#C6EA4B"/>
<path d="M13.5 7.10864V31.8916L20.0439 28.0826V10.9177L13.5 7.10864Z" fill="#92E200"/>
</svg>
