<svg width="258" height="196" viewBox="0 0 258 196" fill="none" xmlns="http://www.w3.org/2000/svg">
<path d="M12 37L117.5 8.5L245 12.5L228.5 153.5L145.5 172L53.5 178L12 37Z" fill="#F0F2F9"/>
<path d="M247.52 25.2056C247.507 20.2476 243.863 16.0477 238.957 15.3356L205.501 10.4802C200.472 9.75031 195.694 12.9089 194.396 17.8225L193.875 19.7974C192.546 19.2324 191.097 18.9563 189.626 19.0057L177.5 19.4128C177.364 17.1038 176.43 14.8962 174.833 13.1825C172.91 11.1186 170.204 9.96306 167.383 10.0009L152.597 10.1992C147.471 10.268 143.228 14.2016 142.771 19.3074L141.557 32.8785L138.085 18.2204C137.005 13.6614 132.905 10.4634 128.22 10.5262L111.835 10.746C108.668 10.7885 105.708 12.3293 103.856 14.8996C103.832 14.9329 103.808 14.9664 103.785 15H92.9696C87.4468 15 82.9696 19.4772 82.9696 25V59.8907L76.7216 35.0337C75.7359 31.1122 72.4857 28.1703 68.4857 27.579L52.4948 25.215C51.1946 25.0228 49.8693 25.0888 48.5946 25.4092L17.5623 33.2094C14.9336 33.8702 12.6857 35.5696 11.3334 37.9187C9.98118 40.2677 9.64038 43.065 10.3891 45.67L43.5211 160.947L43.6705 165.252C43.6949 165.958 43.794 166.659 43.9661 167.344L46.6071 177.851C47.2537 180.423 48.8955 182.633 51.1715 183.994C53.4474 185.356 56.1711 185.758 58.7432 185.111L90.3398 177.169C94.5287 176.116 98.1386 173.789 101.182 171.077C101.273 170.996 101.363 170.913 101.451 170.829C103.303 169.053 104.601 167.084 105.458 165.025C105.89 166.524 106.67 167.916 107.757 169.081C109.68 171.14 112.383 172.293 115.201 172.256L132.585 172.022C137.974 171.95 142.336 167.62 142.448 162.232L142.779 146.409L144.703 152.393L144.83 161.857C144.866 164.509 145.954 167.038 147.854 168.888C149.754 170.738 152.312 171.758 154.964 171.722L169.55 171.527C175.072 171.452 179.489 166.916 179.415 161.393L179.335 155.413C179.302 153.003 178.401 150.686 176.796 148.888L175.608 147.557L160.253 97.939L169.503 88.4595C169.83 88.1248 170.131 87.7692 170.406 87.396L171.858 130.665C171.947 133.316 173.086 135.822 175.023 137.634C176.96 139.445 179.538 140.413 182.188 140.324L191.068 140.025C191.074 142.336 191.88 144.586 193.369 146.382C195.098 148.468 197.6 149.763 200.301 149.971L214.11 151.033C219.611 151.456 224.415 147.344 224.847 141.845L232.439 45.1419L236.781 45.4758C239.562 45.6897 242.307 44.7318 244.352 42.8335C246.396 40.9351 247.555 38.2689 247.547 35.4789L247.52 25.2056ZM200.492 53.8853L200.245 42.2226L201.709 42.8378L200.492 53.8853ZM105.084 147.87C105.477 147.806 105.862 147.72 106.238 147.612L105.937 151.266L105.084 147.87ZM114.817 94.6444L115.722 65.4251L122.523 86.7485L114.817 94.6444ZM68.2393 151.319C68.2392 151.319 68.2396 151.314 68.2407 151.304C68.2406 151.306 68.2405 151.307 68.2403 151.309C68.2398 151.315 68.2394 151.318 68.2393 151.319Z" stroke="#F0F2F9" stroke-width="20" stroke-linecap="round" stroke-linejoin="round"/>
<rect x="177" y="140" width="66" height="28" rx="8" fill="#F0F2F9"/>
<path d="M237.52 25.232L237.548 35.5052L223.251 34.4057L214.877 141.062L201.068 140L212.466 36.511L201.068 31.7215L204.065 20.3766L237.52 25.232Z" fill="#D01D52"/>
<path d="M192.104 129.985L181.853 130.329L178.912 42.7504L176.189 36.0098L175.97 29.4699L189.962 29L192.104 129.985Z" fill="#06B4C0"/>
<path d="M119.878 103.776L133.875 89.4334L111.97 20.7451L128.354 20.5253L143.607 84.9167L147.518 78.4844L152.731 20.1983L167.517 20L162.347 81.4754L148.941 95.2124L166.698 152.592L169.336 155.547L169.416 161.527L154.83 161.723L154.682 150.76L139.041 102.124L133.546 109.574L132.451 162.023L115.067 162.256L119.878 103.776Z" fill="#DD830B"/>
<path fill-rule="evenodd" clip-rule="evenodd" d="M92.9696 25H106.97L103.47 138H97.9965C96.7309 132.925 94.8292 125.709 92.9696 118.768V25Z" fill="#049A9C"/>
<path d="M67.0233 37.4714L96.3575 154.175C97.395 158.302 96.7859 161.448 94.5301 163.61C92.2429 165.648 90.0336 166.935 87.9021 167.471L56.3055 175.413L53.6644 164.906L53.4724 159.369L20 42.9077L51.0324 35.1075L67.0233 37.4714ZM74.1158 157.172C75.9965 156.699 77.2498 155.586 77.8755 153.833C78.5013 152.08 78.3422 148.795 77.3982 143.979L57.2491 47.9075C57.0605 47.157 56.825 46.7507 56.5428 46.6886C56.2292 46.5015 55.7589 46.4867 55.132 46.6443L40.8383 50.2371C39.7098 50.5208 39.2871 51.2255 39.57 52.3512L65.9802 157.422C66.2632 158.547 66.9689 158.968 68.0974 158.685L74.1158 157.172Z" fill="#D73874"/>
<path d="M181.993 161C185.336 161 187.017 158.735 187.017 155.907V152.073C187.017 149.324 185.607 147 181.993 147C178.38 147 176.97 149.324 176.97 152.073V155.907C176.97 158.735 178.651 161 181.993 161ZM181.993 149.459C183.694 149.459 184.312 150.505 184.312 152.073V155.907C184.312 157.457 183.578 158.541 181.993 158.541C180.409 158.541 179.675 157.457 179.675 155.907V152.073C179.675 150.505 180.293 149.459 181.993 149.459Z" fill="#2F323E"/>
<path d="M197.594 161C198.444 161 199.023 160.4 199.023 159.683V148.259C199.023 147.581 198.444 147 197.69 147C196.956 147 196.318 147.581 196.318 148.259V155.578C194.541 152.461 193.555 150.699 191.835 147.717C191.565 147.291 191.043 147 190.522 147C189.71 147 189.111 147.562 189.111 148.317V159.742C189.111 160.419 189.691 161 190.444 161C191.178 161 191.816 160.419 191.816 159.742V152.499L196.299 160.322C196.55 160.729 197.091 161 197.594 161Z" fill="#2F323E"/>
<path d="M209.683 159.587C209.683 158.909 209.064 158.386 208.369 158.386H204.176V148.239C204.176 147.581 203.557 147 202.823 147C202.07 147 201.471 147.581 201.471 148.239V159.49C201.471 160.245 202.147 160.826 202.92 160.826H208.369C209.103 160.826 209.683 160.284 209.683 159.587Z" fill="#2F323E"/>
<path d="M211.188 159.761C211.188 160.419 211.787 161 212.541 161C213.275 161 213.894 160.419 213.894 159.761V148.239C213.894 147.581 213.275 147 212.541 147C211.787 147 211.188 147.581 211.188 148.239V159.761Z" fill="#2F323E"/>
<path d="M224.823 161C225.673 161 226.252 160.4 226.252 159.683V148.259C226.252 147.581 225.673 147 224.919 147C224.185 147 223.547 147.581 223.547 148.259V155.578C221.77 152.461 220.784 150.699 219.064 147.717C218.794 147.291 218.272 147 217.75 147C216.939 147 216.34 147.562 216.34 148.317V159.742C216.34 160.419 216.92 161 217.673 161C218.407 161 219.045 160.419 219.045 159.742V152.499L223.528 160.322C223.779 160.729 224.32 161 224.823 161Z" fill="#2F323E"/>
<path d="M236.97 159.567C236.97 158.909 236.332 158.367 235.617 158.367H231.405V155.21H235.057C235.81 155.21 236.39 154.668 236.39 153.971C236.39 153.274 235.733 152.751 235.057 152.751H231.405V149.634H235.424C236.158 149.634 236.776 149.13 236.776 148.433C236.776 147.755 236.158 147.174 235.424 147.174H230.187C229.337 147.174 228.7 147.872 228.7 148.549V159.451C228.7 160.497 229.55 160.826 230.497 160.826H235.617C236.351 160.826 236.97 160.264 236.97 159.567Z" fill="#2F323E"/>
<path d="M81.5793 95.381L67.0233 37.4714L51.0324 35.1075L20 42.9077L33.5501 90.0528C38.7911 91.1351 44.1957 92.0635 49.7449 92.8307L39.57 52.3512C39.2871 51.2254 39.7098 50.5207 40.8383 50.2371L55.132 46.6443C55.7589 46.4867 56.2292 46.5015 56.5428 46.6886C56.825 46.7507 57.0605 47.1569 57.2491 47.9074L67.0546 94.6605C71.8161 95.0146 76.6612 95.2561 81.5793 95.381Z" fill="white" fill-opacity="0.4" style="mix-blend-mode:soft-light"/>
<path d="M92.9696 95.4615V25H106.97L104.798 95.1137C100.819 95.3032 96.8748 95.4185 92.9696 95.4615Z" fill="white" fill-opacity="0.4" style="mix-blend-mode:soft-light"/>
<path d="M130.497 92.8948L133.875 89.4334L111.97 20.7451L128.354 20.5253L143.607 84.9167L147.518 78.4844L152.731 20.1983L167.517 20L162.347 81.4754L155.098 88.9036C147.101 90.5092 138.888 91.8482 130.497 92.8948Z" fill="white" fill-opacity="0.4" style="mix-blend-mode:soft-light"/>
<path d="M191.033 79.4662C187.504 80.6279 183.911 81.7356 180.256 82.7864L178.912 42.7504L176.189 36.0098L175.97 29.4699L189.962 29L191.033 79.4662Z" fill="white" fill-opacity="0.4" style="mix-blend-mode:soft-light"/>
<path d="M208.451 73.0834L212.466 36.511L201.068 31.7215L204.065 20.3766L237.52 25.232L237.548 35.5052L223.251 34.4057L220.687 67.737C216.733 69.5944 212.651 71.3786 208.451 73.0834Z" fill="white" fill-opacity="0.4" style="mix-blend-mode:soft-light"/>
</svg>
