<svg width="50" height="50" viewBox="0 0 50 50" fill="none" xmlns="http://www.w3.org/2000/svg">
<circle cx="25" cy="25" r="23" fill="#B8C8FF" stroke="#969EE8" stroke-width="4"/>
<path fill-rule="evenodd" clip-rule="evenodd" d="M25 23C24.6667 22 24 19.8 24 19C24 18.2 25.3334 16.3333 26 15.5H26.7034L25 13.5L21 12L17 12.5L14 16.5C13.8334 17.6667 13.7 20.3 14.5 21.5C15.3 22.7 17.8333 23.6667 19 24C20.8334 23.8333 24.6 23.4 25 23ZM9 35L11 29.5L16 25.5H23.5L26.5 27C25 27.8333 21.9 29.7 21.5 30.5C21.1 31.3 20.3333 33.8333 20 35H9ZM22.5 33L21.5 35.5L22.5 36H40L42 35.5L39 30L35 27.5H29L26 29L22.5 33ZM32.5 25.5001L36.5 24.0001L38 20.0001L35.5 16.0001C34.3333 15.5001 31.6 14.6001 30 15.0001C28.4 15.4001 27 17.1667 26.5 18L26 22L28.5 24.5L32.5 25.5001Z" fill="#F0F2F9"/>
</svg>
