<svg width="18" height="13" viewBox="0 0 18 13" fill="none" xmlns="http://www.w3.org/2000/svg">
<path d="M15.3366 0H11.4938C10.7758 0 10.1938 0.582023 10.1938 1.29999C10.1938 2.01795 10.7758 2.59997 11.4938 2.59997H14.3367C14.8889 2.59997 15.3367 3.04769 15.3367 3.59997V5.49992C15.3367 6.05222 14.8889 6.49994 14.3366 6.49992L5.05126 6.49961L6.02591 5.51414C6.55428 4.9799 6.55428 4.11993 6.02591 3.58569C5.48922 3.04304 4.61273 3.04304 4.07604 3.58569L0.0653689 7.64095C-0.02179 7.72908 -0.0217896 7.87094 0.0653698 7.95906L4.07599 12.0142C4.61268 12.5569 5.48917 12.5569 6.02586 12.0142C6.55423 11.48 6.55423 10.62 6.02586 10.0858L5.05064 9.09973L15.3367 9.09876C16.7548 9.09876 17.9081 7.93271 17.9081 6.49879V2.60007C17.9081 1.1661 16.7548 4.85713e-05 15.3366 0Z" fill="#2F323E"/>
</svg>
