<svg width="50" height="50" viewBox="0 0 50 50" fill="none" xmlns="http://www.w3.org/2000/svg">
<path d="M48 25C48 37.7025 37.7025 48 25 48C12.2975 48 2 37.7025 2 25C2 12.2975 12.2975 2 25 2C37.7025 2 48 12.2975 48 25Z" fill="#8EE5B1" stroke="#6BBCA9" stroke-width="4"/>
<path d="M18.1637 15.1439L13.6086 20.1876C12.6596 19.4403 11.9004 18.5062 11.331 17.3854C11.0764 16.8841 10.1923 15.1439 13.0392 13.4626C15.3168 12.1176 17.4045 14.023 18.1637 15.1439Z" fill="white"/>
<path fill-rule="evenodd" clip-rule="evenodd" d="M26.1753 14.8942C25.403 14.6905 24.5898 14.6905 23.8174 14.8942L21.0508 15.6238C20.2785 15.8275 19.5742 16.2277 19.0088 16.7842L16.9835 18.7776C16.4182 19.3341 16.0115 20.0273 15.8046 20.7874L15.0633 23.5104C14.8563 24.2706 14.8563 25.071 15.0633 25.8312L16.1205 29.7146L17.9385 31.504L14.7474 35.3187L15.3168 37H18.1637L20.8779 33.6685C20.9351 33.686 20.9928 33.7025 21.0508 33.7178L23.8174 34.4474C24.5898 34.6511 25.403 34.6511 26.1753 34.4474L29.6073 33.5423L32.3984 37H35.2454L35.8148 35.3187L32.4022 31.1615L33.0092 30.564C33.5746 30.0075 33.9812 29.3144 34.1882 28.5542L35.2454 24.6708L34.1882 20.7874C33.9812 20.0273 33.5746 19.3341 33.0092 18.7776L30.9839 16.7842C30.4186 16.2277 29.7143 15.8275 28.9419 15.6238L26.1753 14.8942ZM28.9654 20.1875L30.5758 21.7726L24.1339 28.113L19.3025 23.3577L20.913 21.7726L24.1339 24.9428L28.9654 20.1875Z" fill="white"/>
<path d="M35.8148 19.0666L32.9678 15.1437C33.727 14.5833 35.3593 13.4625 35.8148 13.4625C36.3842 13.4625 38.6617 13.4625 39.8005 16.2645C40.7115 18.5062 38.2821 20.1875 36.9536 20.7479L35.8148 19.0666Z" fill="white"/>
</svg>
