<svg width="40" height="40" viewBox="0 0 40 40" fill="none" xmlns="http://www.w3.org/2000/svg">
<rect width="40" height="40" rx="16" fill="#FFCD45"/>
<path d="M20.1765 14C16.0053 14 12.4432 16.488 11 20C12.4432 23.512 16.0053 26 20.1765 26C24.3517 26 27.9097 23.512 29.3529 20C27.9097 16.488 24.3517 14 20.1765 14ZM20.1765 24C17.874 24 16.0053 22.208 16.0053 20C16.0053 17.792 17.874 16 20.1765 16C22.4789 16 24.3476 17.792 24.3476 20C24.3476 22.208 22.4789 24 20.1765 24Z" fill="#2F323E"/>
<path d="M20.1765 17.6001C18.7958 17.6001 17.6738 18.6761 17.6738 20.0001C17.6738 21.3241 18.7958 22.4001 20.1765 22.4001C21.5571 22.4001 22.6791 21.3241 22.6791 20.0001C22.6791 18.6761 21.5571 17.6001 20.1765 17.6001Z" fill="#2F323E"/>
</svg>
