<svg width="120" height="124" viewBox="0 0 120 124" fill="none" xmlns="http://www.w3.org/2000/svg">
<path d="M30.6001 25H31.4175L31.5801 24.1989C34.267 10.9624 45.9712 1 60 1C74.0288 1 85.733 10.9624 88.4199 24.1989L88.5825 25H89.3999H107.669C113.744 25 118.669 29.9249 118.669 36V81.8486C118.669 85.7417 116.611 89.3448 113.258 91.3229L60.3425 122.539C60.029 122.724 59.6398 122.724 59.3263 122.539L6.41087 91.3229C3.05778 89.3448 1 85.7417 1 81.8486V36C1 29.9249 5.92487 25 12 25H30.6001Z" fill="#2F323E" stroke="#688B8F" stroke-width="2"/>
<path fill-rule="evenodd" clip-rule="evenodd" d="M47.168 18H72.2561L72.7057 22.2897L75.2368 21.2727L78.6881 22.9368L79.75 26.5424L76.5642 34.3082L73.3784 37.6364H68.6665C66.6323 39.8243 63.8774 42.7157 62.1557 44.5091V47.7818L68.0205 51.0545V54H50.752L50.4262 52.0364L57.5943 48.4364V44.5091L52.3811 38.9455L51.6794 37.6364H46.6612L43.3306 34.3082L40 26.5424L41.1102 22.9368L44.7184 21.2727L46.9945 22.1475L46.8422 20.6182L47.168 18ZM47.8197 30.4364L50.6386 35.6949H47.4939L45.551 31.2573L44.1633 27.0971L45.551 24.8783L47.2827 25.0431L47.8197 30.4364ZM70.4444 35.6949H72.582L74.4403 31.2573L75.7678 27.0971L74.4403 24.8783L72.7976 25.0417C72.3317 28.4951 71.519 34.2081 71.2787 34.6909C71.2239 34.8009 70.9191 35.1631 70.4444 35.6949ZM59.617 33.5337L56.377 33.6489L56.5204 35.2041H64.5199L64.6346 33.3609L61.9394 33.4473L61.6892 21.2727L55.6393 22.3095L55.9261 23.9223L59.5101 23.6631L59.617 33.5337Z" fill="#FFCD45"/>
</svg>
