<svg width="50" height="50" viewBox="0 0 50 50" fill="none" xmlns="http://www.w3.org/2000/svg">
<circle cx="25" cy="25" r="23" fill="#FFCD45" stroke="#F0AD2A" stroke-width="4"/>
<path fill-rule="evenodd" clip-rule="evenodd" d="M16.6885 13H33.0984L33.3924 15.8598L35.048 15.1818L37.3054 16.2912L38 18.6949L35.9162 23.8721L33.8324 26.0909H30.7504C29.4199 27.5495 27.6179 29.4771 26.4918 30.6727V32.8545L30.3279 35.0364V37H19.0328L18.8197 35.6909L23.5082 33.2909V30.6727L20.0984 26.9636L19.6393 26.0909H16.357L14.1785 23.8721L12 18.6949L12.7262 16.2912L15.0862 15.1818L16.575 15.765L16.4754 14.7455L16.6885 13ZM17.1148 21.2909L18.9586 24.7966H16.9016L15.6308 21.8382L14.7231 19.0647L15.6308 17.5855L16.7636 17.6954L17.1148 21.2909ZM31.9133 24.7966H33.3115L34.527 21.8382L35.3953 19.0647L34.527 17.5855L33.4525 17.6945C33.1478 19.9968 32.6162 23.8054 32.459 24.1273C32.4232 24.2006 32.2238 24.442 31.9133 24.7966Z" fill="#F0F2F9"/>
</svg>
