<svg viewBox="0 0 84 82" fill="none" xmlns="http://www.w3.org/2000/svg">
<g filter="url(#filter0_f18)">
<path d="M65.4177 34.5438C66.2495 33.3984 66.357 31.9082 65.6985 30.6529C65.0389 29.3978 63.7516 28.6418 62.3353 28.6772L49.7435 28.9958C49.2072 29.0092 48.6988 28.7582 48.3837 28.3233L40.982 18.1232C40.1507 16.9771 38.7657 16.4137 37.3707 16.6527C35.9767 16.8916 34.8583 17.884 34.4561 19.2415L30.8718 31.3252C30.7195 31.8401 30.3227 32.2463 29.8125 32.4122L17.833 36.3042C16.4866 36.7411 15.5236 37.8838 15.3196 39.2869C15.1165 40.6898 15.7141 42.0592 16.8798 42.8623L27.255 50.0112C27.6974 50.3165 27.9624 50.8195 27.9622 51.3555L27.9636 63.9605C27.9624 65.0703 28.4245 66.0704 29.2631 66.7777C30.567 67.8805 32.5251 67.949 33.9006 66.8947L43.897 59.2298C44.3149 58.9101 44.8934 58.8131 45.3925 58.9735L57.3716 62.8727C57.9543 63.0628 58.5487 63.1075 59.1369 63.0067C60.2109 62.8227 61.147 62.1703 61.7045 61.2185C62.2608 60.2721 62.3622 59.1735 61.9919 58.1294L57.7955 46.2433C57.6167 45.7369 57.6993 45.1753 58.0148 44.7402L65.4177 34.5438Z" fill="url(#paint0_linear18)" fill-opacity="0.15"/>
</g>
<g filter="url(#filter1_f18)">
<path d="M54.1212 37.2911C54.5436 36.7096 54.5982 35.953 54.2638 35.3157C53.9289 34.6784 53.2753 34.2946 52.5563 34.3125L46.1631 34.4743C45.8908 34.4811 45.6327 34.3537 45.4727 34.1329L41.7147 28.9541C41.2927 28.3722 40.5895 28.0861 39.8812 28.2075C39.1735 28.3287 38.6056 28.8326 38.4014 29.5219L36.5816 35.657C36.5043 35.9184 36.3028 36.1246 36.0438 36.2089L29.9615 38.1849C29.2779 38.4068 28.789 38.9869 28.6854 39.6993C28.5823 40.4116 28.8857 41.1069 29.4776 41.5146L34.7452 45.1443C34.9699 45.2992 35.1044 45.5547 35.1043 45.8268L35.105 52.2266C35.1044 52.7901 35.339 53.2978 35.7648 53.6569C36.4268 54.2169 37.421 54.2516 38.1194 53.7164L43.1947 49.8247C43.4069 49.6624 43.7006 49.6131 43.9541 49.6946L50.0361 51.6743C50.3319 51.7708 50.6337 51.7935 50.9324 51.7423C51.4776 51.6489 51.9529 51.3177 52.236 50.8344C52.5184 50.3539 52.5699 49.7961 52.3819 49.266L50.2513 43.2312C50.1605 42.9741 50.2024 42.689 50.3626 42.4681L54.1212 37.2911Z" fill="url(#paint1_linear18)" fill-opacity="0.35"/>
</g>
<defs>
<filter id="filter0_f18" x="0" y="0.30542" width="83.0779" height="81.35" filterUnits="userSpaceOnUse" color-interpolation-filters="sRGB">
<feFlood flood-opacity="0" result="BackgroundImageFix"/>
<feBlend mode="normal" in="SourceGraphic" in2="BackgroundImageFix" result="shape"/>
<feGaussianBlur stdDeviation="6" result="effect1_foregroundBlur"/>
</filter>
<filter id="filter1_f18" x="23" y="22.0002" width="37.9951" height="37.1178" filterUnits="userSpaceOnUse" color-interpolation-filters="sRGB">
<feFlood flood-opacity="0" result="BackgroundImageFix"/>
<feBlend mode="normal" in="SourceGraphic" in2="BackgroundImageFix" result="shape"/>
<feGaussianBlur stdDeviation="2" result="effect1_foregroundBlur"/>
</filter>
<linearGradient id="paint0_linear18" x1="37.3702" y1="16.6528" x2="45.7077" y2="65.308" gradientUnits="userSpaceOnUse">
<stop stop-color="#FFEB63"/>
<stop offset="1" stop-color="#E0FF63" stop-opacity="0.63"/>
</linearGradient>
<linearGradient id="paint1_linear18" x1="39.881" y1="28.2075" x2="44.1141" y2="52.9107" gradientUnits="userSpaceOnUse">
<stop stop-color="#FFEB63"/>
<stop offset="1" stop-color="#E0FF63" stop-opacity="0.63"/>
</linearGradient>
</defs>
</svg>
