<svg width="501" height="720" viewBox="0 0 501 720" fill="none" xmlns="http://www.w3.org/2000/svg">
<g filter="url(#filter0_f)">
<path d="M227.229 537.826C213.847 508.726 202.618 481.391 193.458 455.351C263.328 421.509 262.39 322.04 262.39 322.04C225.61 347.698 195.184 414.673 193.52 455.146C180.434 417.626 172.085 382.202 169.621 346.533C218.537 325.868 245.587 289.448 248.333 234.971C186.518 273.25 171.997 330.455 169.337 343.761C165.991 289.467 176.224 233.883 203.983 168.345C273.262 130.519 261.885 30.8216 261.885 30.8216C177.519 118.07 201.11 169.72 201.11 169.72C201.377 169.576 201.643 169.433 202.177 169.145C186.413 200.004 174.5 235.156 167.98 271.705C170.612 227.27 161.193 194.659 129.351 148.139C98.6447 265.855 162.66 316.9 162.66 316.9C162.783 316.489 162.702 316.017 162.825 315.606C160.963 349.303 163.839 382.857 172.624 414.605C166.305 397.704 150.567 366.775 113.432 340.83C113.432 340.83 104.942 416.64 176.179 427.317C188.53 460.586 205.189 492.912 217.541 526.181C209.638 513.057 185.569 486.787 113.321 462.373C122.125 494.799 167.953 560.973 220.772 534.765C231.505 565.98 237.869 598.344 232.438 632.758C232.211 634.257 234.651 634.319 234.878 632.82C239.835 600.727 237.142 568.795 227.229 537.826Z" fill="url(#paint0_linear)" fill-opacity="0.55"/>
<path d="M266.05 143.351C208.177 177.443 180.443 239.182 180.443 239.182C238.596 230.923 255.745 189.51 266.05 143.351Z" fill="url(#paint1_linear)" fill-opacity="0.55"/>
<path d="M249.34 441.259C213.6 472.38 219.05 515.216 219.05 515.216C257.344 492.7 249.34 441.259 249.34 441.259Z" fill="url(#paint2_linear)" fill-opacity="0.55"/>
</g>
<g filter="url(#filter1_f)">
<path d="M229.081 599.732C251.436 583.513 271.427 567.713 289.315 552.011C251.098 497.051 293.834 422.683 293.834 422.683C310.637 457.51 305.206 520.707 289.355 551.831C315.044 529.159 336.289 506.061 353.213 480.292C325.178 444.09 320.235 405.285 341.191 363.178C371.478 418.071 358.22 467.203 354.597 478.328C380.054 438.933 395.85 392.831 402.679 331.841C366.589 274.135 417.268 204.007 417.268 204.007C443.814 305.234 404.257 334.088 404.257 334.088C404.117 333.867 403.978 333.647 403.698 333.205C402.507 363.061 396.608 394.516 386.065 424.743C402.863 390.231 423.723 369.7 467.312 348.189C440.652 449.643 370.966 460.961 370.966 460.961C371.047 460.6 371.308 460.279 371.389 459.918C358.55 486.032 342.21 510.037 322.192 530.189C334.083 520.155 358.981 503.558 397.856 499.748C397.856 499.748 372.204 560.318 314.148 538.241C290.807 558.028 264.626 575.286 241.284 595.073C252.769 588.548 281.961 578.973 346.581 591.151C326.262 611.803 263.854 642.177 235.228 600.16C213.971 619.087 195.512 640.723 185.053 668.885C184.59 670.108 182.729 669.123 183.192 667.901C193.027 641.683 208.544 618.82 229.081 599.732Z" fill="url(#paint3_linear)" fill-opacity="0.35"/>
<path d="M366.589 286.828C395.682 336.907 390.439 395.031 390.439 395.031C350.22 364.25 354.829 325.876 366.589 286.828Z" fill="url(#paint4_linear)" fill-opacity="0.35"/>
<path d="M253.267 517.806C266.98 556.299 244.783 586.194 244.783 586.194C225.514 553.089 253.267 517.806 253.267 517.806Z" fill="url(#paint5_linear)" fill-opacity="0.35"/>
</g>
<defs>
<filter id="filter0_f" x="0" y="0" width="407.16" height="638.258" filterUnits="userSpaceOnUse" color-interpolation-filters="sRGB">
<feFlood flood-opacity="0" result="BackgroundImageFix"/>
<feBlend mode="normal" in="SourceGraphic" in2="BackgroundImageFix" result="shape"/>
<feGaussianBlur stdDeviation="2" result="effect1_foregroundBlur"/>
</filter>
<filter id="filter1_f" x="177.899" y="171.245" width="322.738" height="548.2" filterUnits="userSpaceOnUse" color-interpolation-filters="sRGB">
<feFlood flood-opacity="0" result="BackgroundImageFix"/>
<feBlend mode="normal" in="SourceGraphic" in2="BackgroundImageFix" result="shape"/>
<feGaussianBlur stdDeviation="2.5" result="effect1_foregroundBlur"/>
</filter>
<linearGradient id="paint0_linear" x1="287.93" y1="38.6542" x2="119.23" y2="599.604" gradientUnits="userSpaceOnUse">
<stop stop-color="#545BA2" stop-opacity="0.72"/>
<stop offset="1" stop-color="#3E4592" stop-opacity="0"/>
</linearGradient>
<linearGradient id="paint1_linear" x1="287.93" y1="38.6542" x2="119.23" y2="599.604" gradientUnits="userSpaceOnUse">
<stop stop-color="#545BA2" stop-opacity="0.72"/>
<stop offset="1" stop-color="#3E4592" stop-opacity="0"/>
</linearGradient>
<linearGradient id="paint2_linear" x1="287.93" y1="38.6542" x2="119.23" y2="599.604" gradientUnits="userSpaceOnUse">
<stop stop-color="#545BA2" stop-opacity="0.72"/>
<stop offset="1" stop-color="#3E4592" stop-opacity="0"/>
</linearGradient>
<linearGradient id="paint3_linear" x1="394.382" y1="198.889" x2="284.153" y2="691.802" gradientUnits="userSpaceOnUse">
<stop stop-color="#7980CC"/>
<stop offset="1" stop-color="#7980CC" stop-opacity="0"/>
</linearGradient>
<linearGradient id="paint4_linear" x1="394.382" y1="198.889" x2="284.153" y2="691.802" gradientUnits="userSpaceOnUse">
<stop stop-color="#7980CC"/>
<stop offset="1" stop-color="#7980CC" stop-opacity="0"/>
</linearGradient>
<linearGradient id="paint5_linear" x1="394.382" y1="198.889" x2="284.153" y2="691.802" gradientUnits="userSpaceOnUse">
<stop stop-color="#7980CC"/>
<stop offset="1" stop-color="#7980CC" stop-opacity="0"/>
</linearGradient>
</defs>
</svg>
