<svg width="1231" height="556" viewBox="0 0 1231 556" fill="none" xmlns="http://www.w3.org/2000/svg">
<g filter="url(#filter0_f)">
<path d="M18.5628 270.071C18.8009 268.726 19.1085 268.372 20.0768 267.973L21.6831 267.196C23.9274 266.043 25.5107 264.936 27.3782 263.144L28.6079 261.729C33.2189 256.425 36.3161 253.219 36.7764 245.546C37.1833 241.864 36.5987 238.251 35.9911 234.307C35.4758 231.686 35.291 229.041 35.1063 226.397C34.806 222.099 34.5057 217.802 33.8981 213.858C33.644 210.222 33.0595 206.609 32.8054 202.973C31.7198 187.436 34.1471 174.644 39.4264 164.642C40.3255 163.25 41.2247 161.859 42.4543 160.444C44.5138 156.646 47.6803 154.432 51.2465 153.186C48.8406 152.025 46.4116 150.534 44.2669 148.359C40.3542 144.646 41.6833 139.903 42.7051 135.513C43.988 130.108 45.5785 124.35 47.192 118.923C47.7144 116.893 48.2367 114.864 49.0897 112.811C50.1576 109.082 50.234 105.423 50.0262 102.448C49.8183 99.4728 45.6907 97.436 42.2471 95.6835C40.8788 95.1147 39.5106 94.546 38.4728 93.9541C38.4728 93.9541 36.728 92.7473 36.6356 91.4251C36.5894 90.7639 36.8968 90.4103 37.5347 90.0335C38.8104 89.28 40.4399 88.834 42.0924 88.7185C44.406 88.5569 46.7656 89.0564 49.1254 89.5559C49.8095 89.8402 50.4706 89.794 51.1547 90.0784C57.8803 91.2694 64.3676 93.8057 70.1941 96.3882L72.6 97.5489C84.8907 102.337 96.0905 110.523 107.921 122.984C111.173 126.743 114.755 130.479 118.007 134.238C127.408 145.207 137.14 156.153 149.593 163.256C152.706 165.031 155.796 166.476 159.193 167.568C159.193 167.568 159.193 167.568 159.524 167.544C160.185 167.498 160.846 167.452 161.507 167.406C162.498 167.337 247.068 156.113 311.584 138.318C325.588 134.35 341.529 129.582 360.374 123.615C378.89 117.671 400.026 111.211 424.114 104.213C423.76 103.906 423.714 103.245 423.007 102.63C417.918 96.3416 415.965 92.1597 417.102 89.4228C418.831 85.648 425.418 84.8556 437.524 86.9994C453.005 89.9039 466.978 90.2563 475.925 89.9633C540.841 73.137 606.318 59.5932 675.685 49.4317C705.929 44.9932 739.218 41.3386 774.582 38.8677C864.148 32.6096 959.534 33.585 1036.5 41.8269C1144.9 53.1871 1181.22 73.902 1192.26 89.4069C1192.26 89.4069 1197.45 97.0172 1191.98 104.375C1193.75 105.912 1196.58 108.372 1196.85 112.339C1197.16 116.636 1193.84 121.518 1187.2 126.3C1178.03 132.92 1155.45 142.47 1121.63 157.456C1093.59 169.713 1057.19 185.876 1014.1 206.159C1008.65 208.866 1002.86 211.596 997.072 214.325C994.827 215.478 992.583 216.632 990.316 217.455C958.827 232.61 920.943 246.551 879.309 259.093C879.378 260.085 879.778 261.053 879.847 262.045C880.762 265.635 880.593 267.972 880.163 271.324C879.641 273.353 879.095 275.053 878.55 276.752C877.72 279.135 877.198 281.164 876.721 283.855C876.553 286.192 875.039 288.291 873.855 290.367C872.672 292.442 871.488 294.518 871.273 296.194C870.456 336.777 855.387 373.041 849.701 386.725C849.132 388.094 848.871 389.109 848.256 389.816C846.835 393.237 845.436 396.989 844.345 400.387C841.525 407.56 838.728 415.063 835.578 422.259C826.057 442.855 813.638 459.999 798.959 473.316C794.586 477.275 785.916 481.535 778.976 482.02C776.662 482.181 774.326 482.012 772.604 481.136C772.604 481.136 772.273 481.159 772.25 480.829C769.421 478.369 768.176 474.802 768.936 471.427C769.958 467.037 773.363 463.478 776.46 460.272C778.327 458.48 779.864 456.712 781.071 454.967C783.484 451.476 784.529 447.417 785.551 443.028C786.619 439.299 787.333 435.263 789.392 431.465L790.268 429.743C792.351 426.276 794.126 423.162 795.194 419.433C796.001 416.72 796.454 413.698 797.261 410.985C797.522 409.97 797.783 408.955 798.021 407.61C798.782 404.235 799.942 401.828 801.41 399.068L801.717 398.715C802.286 397.346 803.185 395.955 803.07 394.302C802.931 392.319 802.131 390.381 801.332 388.444C800.578 387.168 800.132 385.538 799.71 384.239C798.794 380.649 799.955 378.243 801.446 375.813C801.446 375.813 801.446 375.813 801.753 375.46L802.698 374.729C803.928 373.315 804.85 372.254 804.735 370.601L804.712 370.27C804.996 369.586 805.28 368.902 805.234 368.241C805.664 364.889 804.795 361.96 803.242 358.747L803.219 358.416C800.774 351.943 802.365 346.185 804.685 341.373L804.662 341.042C805.799 338.305 806.96 335.899 807.436 333.208C807.436 333.208 807.436 333.208 807.413 332.877C808.573 330.471 809.357 327.427 807.358 322.584C806.535 320.316 805.052 318.094 803.898 315.85C802.345 312.636 800.462 309.446 799.216 305.879C795.833 295.486 800.474 285.861 805.869 277.511C801.949 278.45 797.699 279.411 793.756 280.019C791.098 289.505 789.124 299.277 787.149 309.048C786.435 313.084 785.39 317.143 784.653 320.848C780.351 340.083 774.227 361.771 759.449 378.416C755.76 382.659 754.646 385.727 754.093 392.077C753.97 395.075 753.279 399.442 750.42 401.302C748.837 402.41 747.23 403.186 745.624 403.963C743.38 405.116 741.443 405.916 739.575 407.707C735.863 411.62 731.844 415.887 728.224 421.123C720.939 430.933 714.53 439.021 708.051 446.117C701.242 453.237 694.225 457.381 685.248 461.994C681.728 463.901 681.605 466.899 681.529 470.559L681.598 471.55C681.499 474.879 677.932 476.125 675.665 476.948L675.027 477.324C673.421 478.101 672.122 478.524 670.492 478.97C667.564 479.839 664.659 481.038 661.777 482.568C658.61 484.783 655.467 487.328 652.347 490.203C650.786 491.641 649.226 493.079 647.666 494.516C638.259 502.481 629.375 508.417 621.036 512.654C617.631 516.213 613.473 518.497 609.292 520.45L608.016 521.203C603.858 523.487 592.591 528.593 580.032 529.47C573.752 529.909 568.395 529.287 563.936 527.273C559.832 525.567 557.664 523.061 556.772 519.801C555.18 511.276 565.086 500.951 570.643 494.915C578.374 486.735 585.16 479.285 591.308 472.212L591.923 471.505C595.305 467.614 598.994 463.37 601.691 459.196C602.897 457.451 604.081 455.375 605.264 453.299C607.039 450.185 608.815 447.072 611.274 444.243C612.811 442.474 614.371 441.037 616.285 439.906C617.845 438.469 619.759 437.338 620.988 435.924C622.218 434.509 623.025 431.795 623.501 429.105C624 426.744 624.807 424.031 625.99 421.955C627.458 419.195 629.987 417.357 631.831 415.235C633.084 414.151 634.337 413.067 635.236 411.676C638.64 408.116 640.254 402.688 641.913 397.922L642.151 396.577C644.925 388.743 647.983 380.224 654.746 372.444C659.334 366.809 661.209 360.366 663.084 353.924C663.867 350.879 664.958 347.481 666.05 344.083C671.951 328.723 679.696 311.241 693.03 297.686C671.971 300.486 650.841 302.295 630.35 303.727C576.147 307.514 526.295 307.011 482.091 301.795C362.907 288.199 257.477 233.78 194.407 200.982C183.723 195.418 174.076 190.445 165.821 186.371C143.508 190.255 127.255 214.311 121.03 225.044C119.847 227.119 118.663 229.195 117.48 231.271C113.054 239.22 108.32 247.523 101.818 254.289C94.3709 261.785 84.7562 266.775 75.4256 271.081C68.0318 274.587 59.2007 276.533 48.294 277.295C46.311 277.434 44.3279 277.572 42.6754 277.688L41.6839 277.757C34.3897 277.934 25.443 278.227 19.4087 272.67C19.3856 272.339 18.3247 271.417 18.5628 270.071Z" fill="url(#paint0_linear)" fill-opacity="0.8"/>
</g>
<defs>
<filter id="filter0_f" x="-2" y="0.541138" width="1232.86" height="574.713" filterUnits="userSpaceOnUse" color-interpolation-filters="sRGB">
<feFlood flood-opacity="0" result="BackgroundImageFix"/>
<feBlend mode="normal" in="SourceGraphic" in2="BackgroundImageFix" result="shape"/>
<feGaussianBlur stdDeviation="4" result="effect1_foregroundBlur"/>
</filter>
<linearGradient id="paint0_linear" x1="635.023" y1="9.28872" x2="652.62" y2="530.089" gradientUnits="userSpaceOnUse">
<stop stop-color="#CDBFDB"/>
<stop offset="1" stop-color="#4A5B9B" stop-opacity="0.87"/>
</linearGradient>
</defs>
</svg>
