<svg viewBox="0 0 1880 359" fill="none" xmlns="http://www.w3.org/2000/svg">
<g filter="url(#filter0_f)">
<path d="M1815.62 335C1839.41 322.761 1856 297.169 1856 268.238C1856 226.512 1822.81 193.131 1781.33 193.131C1779.11 193.131 1776.9 193.131 1774.69 193.687C1755.33 130.263 1696.7 84.6426 1628.11 84.6426C1569.47 84.6426 1518.58 117.467 1493.14 165.87C1483.74 153.63 1470.46 144.729 1454.97 141.39C1438.38 120.249 1412.38 106.897 1383.07 106.897C1379.75 106.897 1375.87 106.897 1372.56 107.453C1358.73 71.2903 1324.43 45.6982 1284.05 45.6982C1232.06 45.6982 1190.02 87.9808 1190.02 140.278C1190.02 159.194 1195.55 176.997 1205.51 192.018C1200.53 191.462 1195.55 190.906 1190.02 190.906C1165.68 190.906 1143.56 199.807 1125.85 214.272C1105.94 197.026 1081.6 185.342 1054.5 181.448C1054.5 179.222 1054.5 176.997 1054.5 174.215C1054.5 91.3189 987.57 24.0005 905.152 24.0005C834.903 24.0005 775.717 72.9594 759.676 139.165C737.551 119.693 708.234 107.453 676.152 107.453C609.222 107.453 553.908 159.75 549.483 225.956C523.486 197.026 485.872 179.222 444.386 179.222C430.558 179.222 417.283 181.448 404.56 184.786C395.157 106.34 328.78 45.6982 248.022 45.6982C161.179 45.6982 90.3768 116.911 90.3768 204.258C90.3768 210.378 90.9299 216.498 91.4831 222.618C52.2101 235.414 24 272.133 24 315.528C24 322.204 24.5531 328.881 26.2126 335H1815.62Z" fill="white"/>
<path d="M1815.62 335C1839.41 322.761 1856 297.169 1856 268.238C1856 226.512 1822.81 193.131 1781.33 193.131C1779.11 193.131 1776.9 193.131 1774.69 193.687C1755.33 130.263 1696.7 84.6426 1628.11 84.6426C1569.47 84.6426 1518.58 117.467 1493.14 165.87C1483.74 153.63 1470.46 144.729 1454.97 141.39C1438.38 120.249 1412.38 106.897 1383.07 106.897C1379.75 106.897 1375.87 106.897 1372.56 107.453C1358.73 71.2903 1324.43 45.6982 1284.05 45.6982C1232.06 45.6982 1190.02 87.9808 1190.02 140.278C1190.02 159.194 1195.55 176.997 1205.51 192.018C1200.53 191.462 1195.55 190.906 1190.02 190.906C1165.68 190.906 1143.56 199.807 1125.85 214.272C1105.94 197.026 1081.6 185.342 1054.5 181.448C1054.5 179.222 1054.5 176.997 1054.5 174.215C1054.5 91.3189 987.57 24.0005 905.152 24.0005C834.903 24.0005 775.717 72.9594 759.676 139.165C737.551 119.693 708.234 107.453 676.152 107.453C609.222 107.453 553.908 159.75 549.483 225.956C523.486 197.026 485.872 179.222 444.386 179.222C430.558 179.222 417.283 181.448 404.56 184.786C395.157 106.34 328.78 45.6982 248.022 45.6982C161.179 45.6982 90.3768 116.911 90.3768 204.258C90.3768 210.378 90.9299 216.498 91.4831 222.618C52.2101 235.414 24 272.133 24 315.528C24 322.204 24.5531 328.881 26.2126 335H1815.62Z" fill="url(#paint0_linear)"/>
</g>
<defs>
<filter id="filter0_f" x="0" y="0.000488281" width="1880" height="359" filterUnits="userSpaceOnUse" color-interpolation-filters="sRGB">
<feFlood flood-opacity="0" result="BackgroundImageFix"/>
<feBlend mode="normal" in="SourceGraphic" in2="BackgroundImageFix" result="shape"/>
<feGaussianBlur stdDeviation="12" result="effect1_foregroundBlur"/>
</filter>
<linearGradient id="paint0_linear" x1="738.149" y1="-1122.91" x2="1526.25" y2="144.6" gradientUnits="userSpaceOnUse">
<stop stop-color="#828DD8"/>
<stop offset="1" stop-color="#5F73CD"/>
</linearGradient>
</defs>
</svg>
