<svg  viewBox="0 0 1613 542" fill="none" xmlns="http://www.w3.org/2000/svg">
<g filter="url(#filter0_f)">
<path d="M1585.27 525.465C1585.3 524.397 1585.31 523.864 1585.33 522.796C1586.54 471.026 1545.29 427.877 1493.43 426.667C1491.29 426.617 1489.69 426.58 1487.55 426.53C1496.45 411.786 1501.66 394.819 1502.09 376.673C1503.39 320.633 1459.01 274.207 1402.87 272.897C1397.53 272.772 1392.17 273.181 1386.81 273.59C1389.17 264.033 1391 254.464 1391.24 244.323C1392.79 177.609 1340.06 122.444 1273.23 120.885C1256.65 120.499 1240.54 123.327 1225.96 129.395C1207.33 79.2976 1158.98 42.3913 1101.78 41.0568C1026.93 39.3107 964.579 98.1986 962.836 172.919C944.647 150.066 916.636 135.529 885.094 134.793C828.424 133.471 781.376 178.298 780.056 234.871C779.82 245.012 781.199 254.656 783.648 264.325C767.785 233.517 735.659 211.941 698.235 211.068C643.704 209.796 598.297 253.059 597.027 307.498C596.816 316.571 597.673 325.67 600.147 334.271C569.636 335.162 543.502 354.844 533.231 382.373C515.216 352.048 482.531 331.527 445.107 330.654C426.93 330.23 409.71 334.635 394.554 342.291C394.668 291.563 353.926 249.495 303.138 248.31C266.783 247.462 235.302 267.019 218.567 296.533C202.292 283.337 181.629 274.845 159.175 274.321C105.713 273.074 61.4001 315.295 60.155 368.666C60.0803 371.869 59.9932 375.605 60.4531 378.82C35.5867 389.988 18.4283 414.685 17.756 443.506C17.3575 460.585 22.8773 476.2 32.214 488.7L1585.28 524.931L1585.27 525.465Z" fill="url(#paint0_linear)"/>
</g>
<defs>
<filter id="filter0_f" x="0.697632" y="0.000488281" width="1611.6" height="541.464" filterUnits="userSpaceOnUse" color-interpolation-filters="sRGB">
<feFlood flood-opacity="0" result="BackgroundImageFix"/>
<feBlend mode="normal" in="SourceGraphic" in2="BackgroundImageFix" result="shape"/>
<feGaussianBlur stdDeviation="8" result="effect1_foregroundBlur"/>
</filter>
<linearGradient id="paint0_linear" x1="640.559" y1="-28.4506" x2="785.157" y2="574.098" gradientUnits="userSpaceOnUse">
<stop stop-color="#5E5DA8"/>
<stop offset="1" stop-color="#474B83"/>
</linearGradient>
</defs>
</svg>
