<svg width="24" height="24" viewBox="0 0 24 24" fill="none" xmlns="http://www.w3.org/2000/svg">
<path d="M1.16325 6.28066L6.77995 1.07758C5.22897 -0.359185 2.71426 -0.359204 1.16325 1.07758C-0.38776 2.51437 -0.387739 4.84389 1.16325 6.28066Z" fill="#2F323E"/>
<path d="M6.29812 18.0214L3.94124 21.1404C3.34136 21.9343 3.55456 23.0721 4.40116 23.595C4.77261 23.8244 5.25769 23.7327 5.51985 23.3836L9.0286 18.7113L6.29812 18.0214Z" fill="#2F323E"/>
<path d="M17.9647 18.0214L20.8453 21.8334C21.1642 22.2555 21.0509 22.8606 20.6007 23.1386C19.8107 23.6265 18.779 23.4316 18.2214 22.6891L15.2342 18.7113L17.9647 18.0214Z" fill="#2F323E"/>
<path d="M17.2201 1.07758L22.8368 6.28066C24.3877 4.84389 24.3878 2.51437 22.8368 1.07758C21.2857 -0.359204 18.771 -0.359185 17.2201 1.07758Z" fill="#2F323E"/>
<path fill-rule="evenodd" clip-rule="evenodd" d="M12.2555 21.0107C17.7392 21.0107 22.1846 16.8927 22.1846 11.8129C22.1846 6.73309 17.7392 2.61507 12.2555 2.61507C6.77187 2.61507 2.32651 6.73309 2.32651 11.8129C2.32651 16.8927 6.77187 21.0107 12.2555 21.0107ZM6.50344 7.54846C6.11586 7.90752 6.11586 8.48969 6.50344 8.84875L11.6498 13.6161C12.0374 13.9751 12.6658 13.9751 13.0534 13.6161L16.3284 10.5824C16.716 10.2234 16.716 9.64121 16.3284 9.28226C15.9408 8.92319 15.3124 8.92319 14.9248 9.28226L12.3517 11.6658L7.90701 7.54846C7.51943 7.1895 6.89102 7.1895 6.50344 7.54846Z" fill="#2F323E"/>
</svg>
