<svg width="20" height="20" viewBox="0 0 20 20" fill="none" xmlns="http://www.w3.org/2000/svg">
<path d="M12.898 10.1844L19.4892 16.9459C20.2343 17.7102 20.1537 18.9551 19.3163 19.616C18.6128 20.1712 17.6092 20.1191 16.9665 19.4939L10.26 12.9703C6.9116 16.4805 4.00455 19.4146 3.50498 19.5818C3.13852 19.7045 2.68257 19.5185 2.2219 19.1896C0.900388 18.246 1.0963 16.316 2.19552 15.1188L7.04206 9.84005L0.636327 3.60897C-0.202651 2.79287 -0.213417 1.44466 0.61242 0.615148C1.43506 -0.21116 2.77098 -0.204098 3.58492 0.630861L9.7195 6.92387L14.6343 1.57086C15.7239 0.384122 17.6588 0.659309 18.3775 2.10323C18.8046 2.96126 18.6609 3.99318 18.0115 4.69659C16.5178 6.31457 14.7169 8.25128 12.898 10.1844Z" fill="white"/>
</svg>
