<svg width="27" height="25" viewBox="0 0 27 25" fill="none" xmlns="http://www.w3.org/2000/svg">
<path d="M25.0312 0.277778H22.2187C21.1331 0.277778 20.25 1.15 20.25 2.22222V15C20.25 16.0722 21.1331 16.9444 22.2187 16.9444H25.0312C26.1169 16.9444 27 16.0722 27 15V2.22222C27 1.15 26.1169 0.277778 25.0312 0.277778Z" fill="#FF0000"/>
<path d="M5.75877 0C3.56501 0 1.6975 1.55556 1.32625 3.68889L0.0662471 10.9111C-0.406255 13.6333 1.70875 16.1111 4.49877 16.1111H9.80879C9.80879 16.1111 8.96504 17.7778 8.96504 20.5556C8.96504 23.8889 11.4963 25 12.6213 25C13.7463 25 14.3088 24.4444 14.3088 21.6667C14.3088 19.0267 16.8975 16.9022 18.5625 15.8078V2.04333C16.7613 1.22 13.1557 0 7.55878 0H5.75877Z" fill="#FF0000"/>
</svg>
