<svg viewBox="0 0 26 26" fill="none" xmlns="http://www.w3.org/2000/svg">
<path d="M16.7917 20.5H15.7084C15.4092 20.5 15.1667 20.7425 15.1667 21.0417V23.8334H2.16668V2.16668H15.1667V4.95837C15.1667 5.25752 15.4092 5.50005 15.7084 5.50005H16.7917C17.0908 5.50005 17.3334 5.25752 17.3334 4.95837V2.16668C17.3333 0.970074 16.3633 0 15.1667 0H2.16668C0.970074 0 0 0.970074 0 2.16668V23.8334C0 25.03 0.970074 26 2.16668 26H15.1667C16.3633 26 17.3334 25.03 17.3334 23.8333V21.0416C17.3333 20.7425 17.0908 20.5 16.7917 20.5Z" fill="#F0F2F9"/>
<path d="M25.8244 12.6006L19.3244 6.64229C19.1657 6.49787 18.9356 6.45821 18.7404 6.54601C18.5436 6.63223 18.4167 6.82688 18.4167 7.04163V8.125C18.4167 8.27841 18.4817 8.42491 18.596 8.52754L22.3615 11.9167H7.04168C6.74228 11.9167 6.5 12.159 6.5 12.4584V13.5417C6.5 13.8411 6.74228 14.0834 7.04168 14.0834H22.3615L18.596 17.4725C18.4817 17.5751 18.4167 17.7216 18.4167 17.8751V18.9584C18.4167 19.1731 18.5436 19.3678 18.7404 19.454C18.8102 19.4852 18.8848 19.5 18.9584 19.5C19.0912 19.5 19.2223 19.4508 19.3244 19.3577L25.8244 13.3994C25.9365 13.2968 26 13.1518 26 13C26 12.8482 25.9365 12.7032 25.8244 12.6006Z" fill="#F0F2F9"/>
</svg>
