<svg viewBox="0 0 24 16" fill="none" xmlns="http://www.w3.org/2000/svg">
<path d="M11.5556 4.8C9.81696 4.8 8.40405 6.23465 8.40405 8C8.40405 9.76535 9.81696 11.2 11.5556 11.2C13.2942 11.2 14.7071 9.76535 14.7071 8C14.7071 6.23465 13.2941 4.8 11.5556 4.8Z" fill="#AFB5C9"/>
<path d="M11.5556 0C6.30302 0 1.81739 3.3173 0 8C1.81739 12.6827 6.30302 16 11.5556 16C16.8133 16 21.2937 12.6827 23.1111 8C21.2937 3.3173 16.8133 0 11.5556 0ZM11.5556 13.3333C8.65617 13.3333 6.30302 10.9439 6.30302 7.99995C6.30302 5.05595 8.65617 2.66665 11.5556 2.66665C14.4549 2.66665 16.8081 5.056 16.8081 8C16.8081 10.944 14.4549 13.3333 11.5556 13.3333Z" fill="#AFB5C9"/>
</svg>
