<svg viewBox="0 0 24 25" fill="none" xmlns="http://www.w3.org/2000/svg">
<path d="M2 1.5L4.59808 0L18.0981 23.3827L15.5 24.8827L2 1.5Z" fill="#AFB5C9"/>
<path d="M7.57836 5.16199C4.11388 6.35321 1.33599 9.05768 0 12.5C1.81739 17.1826 6.30302 20.5 11.5556 20.5C13.1082 20.5 14.5932 20.2107 15.9617 19.6823L14.4026 16.9819C13.5821 17.5205 12.6046 17.8333 11.5556 17.8333C8.65617 17.8333 6.30302 15.444 6.30302 12.5C6.30302 10.4588 7.43422 8.68423 9.09438 7.78782L7.57836 5.16199Z" fill="#AFB5C9"/>
<path d="M16.4291 14.4919C16.6735 13.8764 16.8081 13.204 16.8081 12.5C16.8081 9.78614 14.8085 7.5436 12.2246 7.20958L10.6782 4.53104C10.968 4.51046 11.2606 4.5 11.5556 4.5C16.8133 4.5 21.2937 7.8173 23.1111 12.5C22.2001 14.8472 20.6201 16.8513 18.6084 18.2666L16.4291 14.4919Z" fill="#AFB5C9"/>
</svg>
