<svg viewBox="0 0 35 24" fill="none" xmlns="http://www.w3.org/2000/svg">
<path d="M17.3333 23C10.0253 23 3.74974 18.4686 1.07719 12C3.74974 5.53137 10.0253 1 17.3333 1C24.6488 1 30.9171 5.53115 33.5895 12C30.9171 18.4688 24.6488 23 17.3333 23Z" stroke="#F0F2F9" stroke-width="2"/>
<path d="M17 19C13.1363 19 10 15.8637 10 12C10 8.13625 13.1363 5 17 5C20.8637 5 24 8.13631 24 12C24 15.8638 20.8637 19 17 19Z" stroke="#F0F2F9" stroke-width="2"/>
<path d="M14 12C14 13.656 15.344 15 17 15C18.656 15 20 13.656 20 12C20 10.344 18.656 9 17 9C15.344 9 14 10.344 14 12Z" fill="#F0F2F9"/>
</svg>
