<svg viewBox="0 0 30 28" fill="none" xmlns="http://www.w3.org/2000/svg">
<path d="M24.9609 28H5.03905C3.55288 28 2.34374 26.7962 2.34374 25.3165V11.1976C2.34374 10.6822 2.76345 10.2642 3.28124 10.2642C3.79903 10.2642 4.21874 10.6822 4.21874 11.1976V25.3165C4.21874 25.7668 4.58671 26.1332 5.03905 26.1332H24.9609C25.4133 26.1332 25.7813 25.7668 25.7813 25.3165V11.1976C25.7813 10.6822 26.201 10.2642 26.7188 10.2642C27.2366 10.2642 27.6563 10.6822 27.6563 11.1976V25.3165C27.6563 26.7961 26.4472 28 24.9609 28Z" fill="#F0F2F9"/>
<path d="M29.0625 14.4642C28.8226 14.4642 28.5827 14.3731 28.3996 14.1908L16.7401 2.58242C15.7806 1.62709 14.2194 1.62709 13.2599 2.58242L1.60042 14.1909C1.23432 14.5554 0.640709 14.5554 0.274615 14.1909C-0.0915382 13.8264 -0.0915382 13.2354 0.274615 12.8709L11.9341 1.26236C13.6246 -0.420788 16.3754 -0.420788 18.0659 1.26236L29.7254 12.8708C30.0915 13.2354 30.0915 13.8263 29.7254 14.1908C29.5424 14.3731 29.3025 14.4642 29.0625 14.4642Z" fill="#F0F2F9"/>
<path d="M18.75 28H11.25C10.7322 28 10.3125 27.5821 10.3125 27.0666V18.7827C10.3125 17.1743 11.6268 15.8658 13.2422 15.8658H16.7578C18.3732 15.8658 19.6875 17.1743 19.6875 18.7827V27.0666C19.6875 27.5821 19.2678 28 18.75 28ZM12.1875 26.1332H17.8125V18.7827C17.8125 18.2037 17.3394 17.7326 16.7578 17.7326H13.2422C12.6606 17.7326 12.1875 18.2037 12.1875 18.7827V26.1332Z" fill="#F0F2F9"/>
</svg>
