<svg viewBox="0 0 19 28" fill="none" xmlns="http://www.w3.org/2000/svg">
<path d="M17.4555 2.54606H17.7654C18.1578 2.54606 18.476 2.2193 18.476 1.81624V0.72982C18.476 0.326751 18.1578 0 17.7654 0L0.710615 0C0.318153 0 0 0.326752 0 0.72982L0 1.81624C0 2.2193 0.318153 2.54606 0.710614 2.54606H1.02059V3.20675C1.02059 7.35455 2.39274 11.1587 4.65268 13.4157C2.39274 15.6731 1.02059 19.4769 1.02059 23.6249V24.4573H0.710614C0.318153 24.4573 0 24.7841 0 25.1872L0 26.2735C0 26.6766 0.318153 27.0033 0.710614 27.0033H17.7654C18.1578 27.0033 18.476 26.6766 18.476 26.2735V25.1872C18.476 24.7841 18.1578 24.4573 17.7654 24.4573H17.4555V23.6249C17.4555 19.4769 16.0831 15.6731 13.8235 13.4157C16.0831 11.1587 17.4555 7.35521 17.4555 3.20675V2.54606ZM12.1022 12.7515L11.2547 13.4157L12.1022 14.0798C14.0695 15.6233 15.4351 18.6381 15.7668 22.0247C15.8075 22.4406 15.4821 22.7915 15.0751 22.7915H3.40134C2.99435 22.7915 2.66894 22.4407 2.70966 22.0248C3.04116 18.6384 4.40619 15.6236 6.37415 14.0798L7.22111 13.4157L6.37415 12.7515C4.4065 11.2079 3.04118 8.19344 2.70965 4.80687C2.66894 4.39098 2.99435 4.04017 3.40133 4.04017H15.0747C15.4816 4.04017 15.807 4.39093 15.7663 4.80679C15.4351 8.19339 14.0695 11.2079 12.1022 12.7515Z" fill="#FCEFDC"/>
<path d="M3.82031 22.0693H14.8203C14.8203 18.7559 12.3579 16.0693 9.32031 16.0693C6.28276 16.0693 3.82031 18.7559 3.82031 22.0693Z" fill="#FCEFDC"/>
<path d="M3.82031 5.06934H14.8203C14.8203 8.38281 12.3579 11.0693 9.32031 11.0693C6.28276 11.0693 3.82031 8.38281 3.82031 5.06934Z" fill="#FCEFDC"/>
</svg>
