<svg viewBox="0 0 14 14" fill="none" xmlns="http://www.w3.org/2000/svg">
<path d="M10.4853 8.16668C11.1324 8.16668 11.6569 7.64434 11.6569 7C11.6569 6.35566 11.4 5.83332 10.4853 5.83332C9.8383 5.83332 9.31377 6.35566 9.31377 7C9.31377 7.64434 9.6 8.16668 10.4853 8.16668Z" fill="#49525B"/>
<path d="M6.97069 0C3.22175 0 0.175732 2.91668 0 6.65C0 6.76668 0 6.88332 0 7C0 10.85 3.10461 14 6.97072 14C10.8368 14 14 10.85 14 7C14 3.15 10.8368 0 6.97069 0ZM3.45605 8.16668C2.81169 8.16668 2.28449 7.64168 2.28449 7C2.2 6.10638 2.81169 5.83332 3.45605 5.83332C4.10041 5.83332 4.6276 6.35832 4.6276 7C4.6276 7.79433 4.10041 8.16668 3.45605 8.16668ZM10.15 9.7305C8.68558 9.7305 7.35 9.08511 7.35 7.24823C6.97069 4.86525 6.00106 3.4938 3.8 3.37589C3.2728 3.37589 2.75312 3.325 2.28452 3.5C4.21757 0.933324 8.02259 0.110461 10.6 2.03546C12.0644 3.14379 12.8284 5.19165 12.8284 7C12.8284 8.45832 11.6144 9.7305 10.15 9.7305Z" fill="#49525B"/>
</svg>
