<svg width="24" height="24" viewBox="0 0 24 24" fill="none" xmlns="http://www.w3.org/2000/svg">
<circle cx="12" cy="12" r="11" fill="white"/>
<path d="M17.9749 14C19.0841 14 19.9832 13.1046 19.9832 12C19.9832 10.8954 19.5429 9.99998 17.9749 9.99998C16.8657 9.99998 15.9665 10.8954 15.9665 12C15.9665 13.1046 16.4571 14 17.9749 14Z" fill="#2F323E"/>
<path d="M11.9498 0C5.52299 0 0.301255 5.00001 0 11.4C0 11.6 0 11.8 0 12C0 18.6 5.32219 24 11.9498 24C18.5774 24 24 18.6 24 12C24 5.4 18.5774 0 11.9498 0ZM5.92465 14C4.82003 14 3.91627 13.1 3.91627 12C3.77143 10.4681 4.82003 9.99998 5.92465 9.99998C7.02927 9.99998 7.93303 10.9 7.93303 12C7.93303 13.3617 7.02927 14 5.92465 14ZM17.4 16.6809C14.8896 16.6809 12.6 15.5745 12.6 12.4255C11.9498 8.34043 10.2875 5.98938 6.51429 5.78723C5.61052 5.78723 4.71963 5.7 3.91632 6C7.23012 1.59998 13.753 0.189362 18.1714 3.48936C20.6819 5.38935 21.9916 8.89997 21.9916 12C21.9916 14.5 19.9104 16.6809 17.4 16.6809Z" fill="#2F323E"/>
</svg>
