<svg width="27" height="25" viewBox="0 0 27 25" fill="none" xmlns="http://www.w3.org/2000/svg">
<path d="M25.0312 24.7222H22.2187C21.1331 24.7222 20.25 23.85 20.25 22.7778V10C20.25 8.92778 21.1331 8.05556 22.2187 8.05556H25.0312C26.1169 8.05556 27 8.92778 27 10V22.7778C27 23.85 26.1169 24.7222 25.0312 24.7222Z" fill="#A1E057"/>
<path d="M5.75877 25C3.56501 25 1.6975 23.4444 1.32625 21.3111L0.0662471 14.0889C-0.406255 11.3667 1.70875 8.88889 4.49877 8.88889H9.80879C9.80879 8.88889 8.96504 7.22222 8.96504 4.44444C8.96504 1.11111 11.4963 0 12.6213 0C13.7463 0 14.3088 0.555555 14.3088 3.33333C14.3088 5.97333 16.8975 8.09778 18.5625 9.19222V22.9567C16.7613 23.78 13.1557 25 7.55878 25H5.75877Z" fill="#A1E057"/>
</svg>
