<svg width="18" height="24" viewBox="0 0 18 24" fill="none" xmlns="http://www.w3.org/2000/svg">
<path fill-rule="evenodd" clip-rule="evenodd" d="M8.53281 0C4.9627 0 2.06856 2.89414 2.06856 6.46425V8.47107L1.50513 8.48787C0.666705 8.51293 0 9.19982 0 10.0386V22.526C0 23.0852 0.444465 23.5431 1.00343 23.5598L15.7265 23.9993C16.6011 24.0254 17.3242 23.3236 17.3242 22.4486V9.08126C17.3242 8.49797 16.8421 8.03006 16.259 8.04749L14.9971 8.08518V6.46425C14.9971 2.89414 12.1029 0 8.53281 0ZM12.6884 6.46425V8.15405L4.37723 8.40214V6.46425C4.37723 4.16919 6.23775 2.30863 8.53281 2.30863C10.8279 2.30863 12.6884 4.16919 12.6884 6.46425ZM10.8599 14.2214C10.8599 14.968 10.5083 15.6324 9.96169 16.0583L10.8599 20.1421C11.0231 20.7949 10.4667 20.6856 9.79383 20.6856H6L6.5 18.5L7.12752 16.0764C6.56742 15.6514 6.20568 14.9786 6.20568 14.2214C6.20568 12.9361 7.24757 11.8942 8.53281 11.8942C9.81806 11.8942 10.8599 12.9361 10.8599 14.2214Z" fill="#F86060"/>
</svg>
