<svg viewBox="0 0 27 20" fill="none" xmlns="http://www.w3.org/2000/svg">
<path d="M24.4687 0H2.53127C1.13544 0 0 1.12142 0 2.50001V17.5C0 18.8786 1.13544 20 2.53127 20H24.4687C25.8646 20 27 18.8786 27 17.5V2.50001C27 1.12142 25.8646 0 24.4687 0ZM24.4687 1.66666C24.5834 1.66666 24.6924 1.69015 24.7921 1.73117L13.5 11.3973L2.20781 1.73117C2.30752 1.6902 2.41657 1.66666 2.53121 1.66666H24.4687ZM24.4687 18.3333H2.53127C2.06573 18.3333 1.68749 17.9598 1.68749 17.4999V3.49201L12.9471 13.1299C13.1062 13.2657 13.3031 13.3333 13.5 13.3333C13.6969 13.3333 13.8938 13.2658 14.0529 13.1299L25.3125 3.49201V17.5C25.3125 17.9598 24.9343 18.3333 24.4687 18.3333Z" fill="white"/>
</svg>
