<svg width="14" height="14" viewBox="0 0 14 14" fill="none" xmlns="http://www.w3.org/2000/svg">
<path d="M1.1623 0.003038L7.71521 0.00301787C8.43666 -0.0467368 9.04927 0.525079 9.04927 1.24823V1.46549C9.04927 2.56644 8.08416 3.11501 6.98773 3.01533H3.54548C2.81453 2.94888 2.18431 3.52442 2.18431 4.25838V9.81457C2.18431 10.4808 2.7076 11.0296 3.37311 11.0613H7.80109C8.32155 11.0861 8.77234 11.703 8.81951 12.2219C8.81951 13.189 8.10764 14.1222 6.79997 13.9869L1.67961 13.9869C0.725269 13.8881 0 13.084 0 12.1245V1.24825C0 0.592236 0.507833 0.0481734 1.1623 0.003038Z" fill="#FFCD45"/>
<path d="M9.8321 5.69999H5.89112C5.10347 5.69999 4.51272 6.42059 4.66719 7.19295L4.89877 8.35084C4.95416 8.62782 5.18869 8.83306 5.47058 8.85124L9.8321 9.13247V9.91222C9.8321 10.4493 10.4655 10.7356 10.8686 10.3806L13.3445 7.68052C13.5627 7.44251 13.5634 7.07732 13.346 6.83855L10.8885 4.13978C10.4919 3.75876 9.8321 4.03985 9.8321 4.58984V5.69999Z" fill="#FFCD45"/>
</svg>
