<svg width="22" height="23" viewBox="0 0 22 23" fill="none" xmlns="http://www.w3.org/2000/svg">
<path d="M1.86239 0.371567L12.3624 0.371535C13.5184 0.291811 14.5 1.20805 14.5 2.3668V2.71491C14.5 4.479 12.9536 5.358 11.1967 5.19829H5.68107C4.50984 5.09181 3.5 6.01401 3.5 7.19007V16.093C3.5 17.1606 4.33849 18.0399 5.40487 18.0907H12.5C13.334 18.1304 14.0563 19.1189 14.1319 19.9504C14.1319 21.5 12.9912 22.9952 10.8959 22.7784L2.6913 22.7784C1.16213 22.6202 0 21.3317 0 19.7943V2.36683C0 1.31566 0.81372 0.443889 1.86239 0.371567Z" fill="#778DDB"/>
<path d="M15.7544 9.50001H9.43958C8.17749 9.50001 7.23091 10.6547 7.47842 11.8922L7.84949 13.7476C7.93825 14.1914 8.31405 14.5203 8.76572 14.5494L15.7544 15V16.2494C15.7544 17.1101 16.7694 17.5687 17.4153 16.9999L21.3824 12.6735C21.7321 12.2921 21.7331 11.707 21.3848 11.3244L17.4472 7.00004C16.8116 6.38951 15.7544 6.83992 15.7544 7.72119V9.50001Z" fill="#778DDB"/>
</svg>
