<svg  viewBox="0 0 18 18" fill="none" xmlns="http://www.w3.org/2000/svg">
<path d="M0 13.0575V18H4.94257L14.8277 8.11493L9.88501 3.17233L0 13.0575ZM4.31282 16.4792L3.0415 16.4793V14.9585H1.52079V13.6871L2.60197 12.6059L5.394 15.3979L4.31282 16.4792ZM10.2655 5.1922C10.4396 5.1922 10.5267 5.27938 10.5267 5.45354C10.5267 5.53285 10.4991 5.60006 10.4435 5.65562L4.00387 12.0952C3.9484 12.1505 3.88103 12.1782 3.80188 12.1782C3.62777 12.1782 3.54058 12.0909 3.54058 11.9169C3.54058 11.8376 3.5683 11.7704 3.62369 11.7148L10.0634 5.27534C10.1187 5.21991 10.186 5.1922 10.2655 5.1922Z" fill="#2F323E"/>
<path d="M17.5602 3.23151L14.7683 0.45143C14.4673 0.150602 14.1069 0 13.6871 0C13.2591 0 12.903 0.150602 12.6179 0.45143L10.6456 2.41183L15.5882 7.35435L17.5605 5.38217C17.8536 5.08908 18 4.73265 18 4.31281C17.9998 3.90104 17.8534 3.54053 17.5602 3.23151Z" fill="#2F323E"/>
</svg>
