<svg width="27" height="24" viewBox="0 0 27 24" fill="none" xmlns="http://www.w3.org/2000/svg">
<path d="M13.5 10.2857C11.637 10.2857 10.125 11.8217 10.125 13.7143C10.125 15.6069 11.637 17.1429 13.5 17.1429C15.363 17.1429 16.875 15.6069 16.875 13.7143C16.875 11.8217 15.363 10.2857 13.5 10.2857ZM25.3125 3.42857H21.0887L20.25 1.32171C19.8011 0.308571 19.2746 0 18.5625 0H8.4375C7.72538 0 7.19887 0.308571 6.75 1.32171L5.91131 3.42857H1.6875C0.759375 3.42857 0 4.2 0 5.14286V22.2857C0 23.2286 0.759375 24 1.6875 24H25.3125C26.2406 24 27 23.2286 27 22.2857V5.14286C27 4.2 26.2406 3.42857 25.3125 3.42857ZM13.5 20.5714C9.77231 20.5714 6.75 17.5011 6.75 13.7143C6.75 9.92743 9.77231 6.85714 13.5 6.85714C17.2277 6.85714 20.25 9.92743 20.25 13.7143C20.25 17.5011 17.2277 20.5714 13.5 20.5714Z" fill="#2F323E"/>
</svg>
