<svg viewBox="0 0 79 77" fill="none" xmlns="http://www.w3.org/2000/svg">
<path d="M27.7119 1.53487C33.3247 -0.211332 39.2944 -0.472535 45.0382 0.776751L50.4671 1.95753C56.1852 3.20122 61.4856 5.89972 65.8554 9.79193L66.1688 10.0711C71.2113 14.5626 74.8022 20.4539 76.4837 26.994L77.7595 31.9567C79.031 36.9021 79.1506 42.0733 78.1092 47.0722C76.5334 54.6358 72.3821 61.4183 66.3635 66.2625L63.8723 68.2677C60.7746 70.761 57.2635 72.6915 53.4986 73.9715L50.0339 75.1496C42.9369 77.5626 35.2414 77.5626 28.1445 75.1496L25.6137 74.2891C21.2428 72.803 17.2204 70.4424 13.7916 67.351L11.7452 65.5061C6.86892 61.1097 3.36981 55.3956 1.67053 49.0537L1.15852 47.1429C-0.330677 41.5852 -0.385061 35.7404 1.00046 30.1558L1.75461 27.1162C3.39626 20.4993 6.98918 14.5288 12.0669 9.97969L12.6689 9.4404C16.3034 6.18425 20.5963 3.74861 25.2558 2.29899L27.7119 1.53487Z" fill="#FFCD45"/>
<path d="M30 37.9807V29.5379C30 27.0931 32.3517 25.3393 34.6692 26.2397C39.4495 28.0971 45.6751 31.3189 50.0428 35.9287C50.6008 36.5177 50.8897 37.276 50.8685 38C50.8897 38.724 50.6008 39.4824 50.0428 40.0713C45.6751 44.6811 39.4495 47.9029 34.6692 49.7603C32.3517 50.6607 30 48.9069 30 46.4621V38.0193C30 38.0129 30 38.0064 30 38C30 37.9936 30 37.9871 30 37.9807Z" fill="#2F323E"/>
</svg>
