<svg viewBox="0 0 33 24" fill="none" xmlns="http://www.w3.org/2000/svg">
<path fill-rule="evenodd" clip-rule="evenodd" d="M16 11C15.6667 10 15 7.8 15 7C15 6.2 16.3334 4.33333 17 3.5H17.7034L16 1.5L12 0L8.00003 0.5L5.00003 4.5C4.83336 5.66667 4.70003 8.3 5.50003 9.5C6.30003 10.7 8.83334 11.6667 10 12C11.8334 11.8333 15.6 11.4 16 11ZM0 23L2 17.5L7 13.5H14.5L17.5 15C16 15.8333 12.9 17.7 12.5 18.5C12.1 19.3 11.3333 21.8333 11 23H0ZM13.5 21L12.5 23.5L13.5 24H31L33 23.5L30 18L26 15.5H20L17 17L13.5 21ZM23.5 13.5001L27.5 12.0001L29 8.00007L26.5 4.00007C25.3333 3.50007 22.6 2.60007 21 3.00007C19.4 3.40007 18 5.16669 17.5 6L17 10L19.5 12.5L23.5 13.5001Z" fill="#B8C8FF"/>
</svg>
