<svg width="26" height="24" viewBox="0 0 26 24" fill="none" xmlns="http://www.w3.org/2000/svg">
<path d="M6.66184 0C5.02607 0 3.69505 1.31866 3.69505 2.93338L3.58719 18.1424L5.20543 18.154L5.31334 2.93932C5.31334 2.21068 5.9183 1.61797 6.66189 1.61797H22.9254V0H6.66184Z" fill="white"/>
<path d="M22.9253 0C21.2299 0 19.8506 1.37903 19.8506 3.07417V20.1438C19.8506 21.3778 18.8462 22.382 17.612 22.382C16.3778 22.382 15.3734 21.3778 15.3734 20.1438V18.1753C15.3734 17.7284 15.0112 17.3663 14.5643 17.3663H0.809148C0.362223 17.3663 0 17.7284 0 18.1753V20.1438C0 22.2701 1.73017 24 3.85684 24V22.382C2.62239 22.382 1.61825 21.3778 1.61825 20.1438V18.9842H13.7552V20.1438C13.7552 22.2701 15.4853 24 17.612 24C19.7387 24 21.4688 22.2701 21.4688 20.1438V7.49661H25.1909C25.6378 7.49661 26 7.13445 26 6.6876V3.07412C26 1.37903 24.6207 0 22.9253 0ZM24.3818 5.87864H21.4689V3.07412C21.4689 2.27105 22.1224 1.61797 22.9253 1.61797C23.7282 1.61797 24.3817 2.2711 24.3817 3.07412V5.87864H24.3818Z" fill="white"/>
<path d="M17.4229 22.382H3.695V24H17.4229V22.382Z" fill="white"/>
<path d="M12.0291 4.50337H7.84855C7.40162 4.50337 7.0394 4.86553 7.0394 5.31238C7.0394 5.75922 7.40162 6.12138 7.84855 6.12138H12.0291C12.476 6.12138 12.8382 5.75922 12.8382 5.31238C12.8382 4.86553 12.4759 4.50337 12.0291 4.50337Z" fill="white"/>
<path d="M16.8838 7.7393H7.84855C7.40162 7.7393 7.0394 8.10146 7.0394 8.54831C7.0394 8.99516 7.40162 9.35732 7.84855 9.35732H16.8838C17.3307 9.35732 17.6929 8.99516 17.6929 8.54831C17.6929 8.10146 17.3307 7.7393 16.8838 7.7393Z" fill="white"/>
<path d="M16.8838 10.9752H7.84855C7.40162 10.9752 7.0394 11.3374 7.0394 11.7842C7.0394 12.2311 7.40162 12.5933 7.84855 12.5933H16.8838C17.3307 12.5933 17.6929 12.2313 17.6929 11.7842C17.6929 11.3374 17.3307 10.9752 16.8838 10.9752Z" fill="white"/>
<path d="M16.8838 14.2112H7.84855C7.40162 14.2112 7.0394 14.5734 7.0394 15.0202C7.0394 15.4671 7.40162 15.8292 7.84855 15.8292H16.8838C17.3307 15.8292 17.6929 15.4671 17.6929 15.0202C17.6929 14.5734 17.3307 14.2112 16.8838 14.2112Z" fill="white"/>
</svg>
