<svg width="15" height="14" viewBox="0 0 15 14" fill="none" xmlns="http://www.w3.org/2000/svg">
<path d="M6.31999 0.69214C6.82068 -0.230713 8.1798 -0.230713 8.6805 0.69214L10.0492 3.2148C10.2423 3.57069 10.5942 3.81934 11.0019 3.88794L13.892 4.37423C14.9493 4.55212 15.3693 5.80912 14.6214 6.55737L12.5772 8.60274C12.2888 8.8913 12.1544 9.29362 12.2133 9.69191L12.6308 12.5151C12.7836 13.5479 11.684 14.3248 10.7211 13.8644L8.08907 12.6058C7.71775 12.4283 7.28274 12.4283 6.91142 12.6058L4.27936 13.8644C3.31648 14.3248 2.21693 13.5479 2.36967 12.5151L2.78717 9.6919C2.84607 9.29362 2.71164 8.89129 2.42326 8.60274L0.379049 6.55737C-0.368773 5.80912 0.051218 4.55212 1.10849 4.37423L3.99858 3.88794C4.4063 3.81934 4.75823 3.57069 4.95132 3.2148L6.31999 0.69214Z" fill="#FFCD45"/>
</svg>
