<svg width="23" height="25" viewBox="0 0 23 25" fill="none" xmlns="http://www.w3.org/2000/svg">
<path d="M1.11478 6.54235L6.49745 1.12248C5.01109 -0.374151 2.60116 -0.374171 1.11478 1.12248C-0.371603 2.61914 -0.371583 5.04572 1.11478 6.54235Z" fill="#FFCD45"/>
<path d="M6.03569 18.7723L3.69626 22.1375C3.15162 22.9209 3.35448 23.9986 4.14669 24.5304C4.53457 24.7908 5.05968 24.6911 5.32522 24.3068L8.6524 19.4909L6.03569 18.7723Z" fill="#FFCD45"/>
<path d="M17.2162 18.7723L20.0462 22.8431C20.3212 23.2387 20.2187 23.7829 19.8187 24.0514C19.0352 24.5774 17.9746 24.3761 17.4382 23.5997L14.5995 19.4909L17.2162 18.7723Z" fill="#FFCD45"/>
<path d="M16.5025 1.12248L21.8852 6.54235C23.3716 5.04572 23.3716 2.61914 21.8852 1.12248C20.3988 -0.374171 17.9889 -0.374151 16.5025 1.12248Z" fill="#FFCD45"/>
<path fill-rule="evenodd" clip-rule="evenodd" d="M11.7449 21.8862C17.0001 21.8862 21.2602 17.5966 21.2602 12.3051C21.2602 7.01364 17.0001 2.72403 11.7449 2.72403C6.48971 2.72403 2.22957 7.01364 2.22957 12.3051C2.22957 17.5966 6.48971 21.8862 11.7449 21.8862ZM6.23246 7.86298C5.86103 8.237 5.86103 8.84342 6.23246 9.21745L11.1644 14.1834C11.5359 14.5574 12.1381 14.5574 12.5095 14.1834L15.648 11.0234C16.0195 10.6493 16.0195 10.0429 15.648 9.66902C15.2766 9.29499 14.6744 9.29499 14.303 9.66902L11.8371 12.1519L7.57755 7.86298C7.20612 7.48907 6.60389 7.48907 6.23246 7.86298Z" fill="#FFCD45"/>
</svg>
