<svg  viewBox="0 0 29 24" fill="none" xmlns="http://www.w3.org/2000/svg">
<path d="M7.16371 2.14386L2.6086 7.18762C1.65962 6.44034 0.900443 5.50621 0.331031 4.38538C0.0763792 3.88412 -0.807721 2.14385 2.03921 0.462606C4.31677 -0.882396 6.40453 1.02302 7.16371 2.14386Z" fill="#8EE6B1"/>
<path fill-rule="evenodd" clip-rule="evenodd" d="M15.1753 1.89422C14.403 1.69053 13.5898 1.69053 12.8174 1.89422L10.0508 2.62385C9.2785 2.82754 8.57423 3.22774 8.00884 3.78422L5.98355 5.7776C5.41815 6.33409 5.01154 7.02726 4.8046 7.78743L4.06329 10.5104C3.85634 11.2706 3.85634 12.071 4.06329 12.8312L5.12049 16.7146L6.93852 18.504L3.74739 22.3187L4.31678 24H7.16372L9.87787 20.6685C9.93512 20.686 9.99279 20.7025 10.0508 20.7178L12.8174 21.4474C13.5898 21.6511 14.403 21.6511 15.1753 21.4474L18.6073 20.5423L21.3984 24H24.2454L24.8148 22.3187L21.4022 18.1615L22.0092 17.564C22.5746 17.0075 22.9812 16.3144 23.1882 15.5542L24.2454 11.6708L23.1882 7.78743C22.9812 7.02726 22.5746 6.33409 22.0092 5.7776L19.9839 3.78422C19.4186 3.22774 18.7143 2.82754 17.9419 2.62385L15.1753 1.89422ZM17.9654 7.18746L19.5758 8.77256L13.1339 15.113L8.3025 10.3577L9.91298 8.77256L13.1339 11.9428L17.9654 7.18746Z" fill="#8EE6B1"/>
<path d="M24.8148 6.06663L21.9678 2.14371C22.727 1.58329 24.3593 0.462454 24.8148 0.462454C25.3842 0.462454 27.6617 0.462454 28.8005 3.26454C29.7115 5.50621 27.2821 7.18746 25.9536 7.74788L24.8148 6.06663Z" fill="#8EE6B1"/>
</svg>
