<svg viewBox="0 0 24 24" fill="none" xmlns="http://www.w3.org/2000/svg">
<mask id="mask0l" mask-type="alpha" maskUnits="userSpaceOnUse" x="0" y="0" width="24" height="24">
<rect width="24" height="24" rx="10" fill="#FFCD45"/>
</mask>
<g mask="url(#mask0l)">
<path d="M13.2 14.4C23.1411 14.4 31.2 10.9974 31.2 6.8C31.2 2.60263 23.1411 -0.800003 13.2 -0.800003C3.25889 -0.800003 -4.79999 2.60263 -4.79999 6.8C-4.79999 10.9974 3.25889 14.4 13.2 14.4Z" fill="#226CC5"/>
<path d="M19.9231 23.8401C23.692 23.5027 27.2 21.0284 27.2 17.2444V17.2444V17.2444C27.2 13.5202 23.6227 11.2 19.8984 11.2H-1.49843C-5.22266 11.2 -8.79999 13.5202 -8.79999 17.2444V17.2444V17.2444C-8.79999 21.0284 -5.29197 23.5027 -1.52305 23.8401L8.30838 24.7202C8.90162 24.7733 9.49841 24.7733 10.0916 24.7202L19.9231 23.8401Z" fill="#FFBD3C"/>
</g>
</svg>
