<svg width="22" height="20" viewBox="0 0 22 20" fill="none" xmlns="http://www.w3.org/2000/svg">
<path fill-rule="evenodd" clip-rule="evenodd" d="M3.95004 0H17.7752L18.0229 2.38319L19.4177 1.81818L21.3196 2.74268L21.9048 4.74576L20.1492 9.06009L18.3936 10.9091H15.7971C14.6761 12.1246 13.158 13.7309 12.2092 14.7273V16.5455L15.4411 18.3636V20H5.92506L5.74551 18.9091L9.69555 16.9091V14.7273L6.82279 11.6364L6.43608 10.9091H3.67074L1.83537 9.06009L0 4.74576L0.61179 2.74268L2.60011 1.81818L3.85439 2.30418L3.77049 1.45455L3.95004 0ZM4.30913 6.90909L5.86256 9.83051H4.12959L3.05895 7.36518L2.29421 5.05393L3.05895 3.82126L4.01325 3.91282L4.30913 6.90909ZM16.7768 9.83051H17.9547L18.9788 7.36518L19.7103 5.05393L18.9788 3.82126L18.0735 3.91207C17.8168 5.83063 17.369 9.00451 17.2365 9.27273C17.2064 9.33383 17.0384 9.53503 16.7768 9.83051Z" fill="#D2CACA"/>
</svg>
