<svg viewBox="0 0 26 24" fill="none" xmlns="http://www.w3.org/2000/svg">
<path fill-rule="evenodd" clip-rule="evenodd" d="M4.68852 0H21.0984L21.3924 2.85983L23.048 2.18182L25.3054 3.29122L26 5.69492L23.9162 10.8721L21.8324 13.0909H18.7504C17.4199 14.5495 15.6179 16.4771 14.4918 17.6727V19.8545L18.3279 22.0364V24H7.03279L6.81967 22.6909L11.5082 20.2909V17.6727L8.09836 13.9636L7.63934 13.0909H4.35701L2.17851 10.8721L0 5.69492L0.726168 3.29122L3.08622 2.18182L4.575 2.76502L4.47541 1.74545L4.68852 0ZM5.11475 8.29091L6.9586 11.7966H4.90164L3.63084 8.83821L2.72313 6.06471L3.63084 4.58552L4.76355 4.69539L5.11475 8.29091ZM19.9133 11.7966H21.3115L22.527 8.83821L23.3953 6.06471L22.527 4.58552L21.4525 4.69448C21.1478 6.99676 20.6162 10.8054 20.459 11.1273C20.4232 11.2006 20.2238 11.442 19.9133 11.7966Z" fill="#FFCD45"/>
</svg>
