<svg viewBox="0 0 11 15" fill="none" xmlns="http://www.w3.org/2000/svg">
<path fill-rule="evenodd" clip-rule="evenodd" d="M10.1043 7.76172C9.09484 9.54249 7.0913 10.3742 5.2199 9.94938L3.08781 13.7108C2.71429 14.3697 1.88706 14.5955 1.24012 14.215C0.593185 13.8346 0.371529 12.992 0.745039 12.3331L2.87714 8.5717C1.58026 7.13336 1.28562 4.95023 2.29503 3.16946C3.54007 0.973008 6.29752 0.220455 8.45397 1.48857C10.6104 2.75669 11.3493 5.56527 10.1043 7.76172ZM4.84705 7.8518C6.14092 8.61267 7.79539 8.16114 8.54241 6.84327C9.28943 5.52539 8.84611 3.84025 7.55224 3.07938C6.25837 2.31851 4.6039 2.77004 3.85688 4.08791C3.10986 5.40578 3.55318 7.09093 4.84705 7.8518Z" fill="#2F323E"/>
</svg>
