<svg width="118" height="38" viewBox="0 0 118 38" fill="none" xmlns="http://www.w3.org/2000/svg">
<path d="M10.3819 3.32906C15.4356 6.95596 15.1441 12.2975 15.1441 12.2975C15.1441 12.2975 9.67211 14.0001 4.73689 10.4677C-0.19127 6.93097 0.00100742 0.676355 0.00100742 0.676355C0.00100742 0.676355 5.32054 -0.300932 10.3819 3.32906Z" fill="url(#paint0_linear)"/>
<path d="M21.412 23.8571C21.412 23.8571 20.0895 18.675 14.1751 16.7588C8.25632 14.8355 3.48462 17.3842 3.48462 17.3842C3.48462 17.3842 5.18873 23.4047 10.9521 25.281C16.7146 27.1463 21.412 23.8571 21.412 23.8571Z" fill="url(#paint1_linear)"/>
<path d="M11.6625 30.179C11.6625 30.179 16.1014 27.0776 22.2019 28.2733C28.3022 29.4652 30.2302 34.4538 30.2302 34.4538C30.2302 34.4538 25.9609 38.2843 20.0105 37.1175C14.0675 35.95 11.6625 30.179 11.6625 30.179Z" fill="url(#paint2_linear)"/>
<path d="M107.548 3.32906C102.494 6.95596 102.786 12.2975 102.786 12.2975C102.786 12.2975 108.258 14.0001 113.193 10.4677C118.121 6.93097 117.929 0.676355 117.929 0.676355C117.929 0.676355 112.609 -0.300932 107.548 3.32906Z" fill="url(#paint3_linear)"/>
<path d="M96.518 23.8571C96.518 23.8571 97.8404 18.675 103.755 16.7588C109.674 14.8355 114.445 17.3842 114.445 17.3842C114.445 17.3842 112.741 23.4047 106.978 25.281C101.215 27.1463 96.518 23.8571 96.518 23.8571Z" fill="url(#paint4_linear)"/>
<path d="M106.267 30.179C106.267 30.179 101.829 27.0776 95.728 28.2733C89.6277 29.4652 87.6997 34.4538 87.6997 34.4538C87.6997 34.4538 91.9691 38.2843 97.9194 37.1175C103.862 35.95 106.267 30.179 106.267 30.179Z" fill="url(#paint5_linear)"/>
<defs>
<linearGradient id="paint0_linear" x1="58.965" y1="-47" x2="58.965" y2="37.3384" gradientUnits="userSpaceOnUse">
<stop stop-color="#D9D9D9"/>
<stop offset="1" stop-color="#848490"/>
</linearGradient>
<linearGradient id="paint1_linear" x1="58.965" y1="-47" x2="58.965" y2="37.3384" gradientUnits="userSpaceOnUse">
<stop stop-color="#D9D9D9"/>
<stop offset="1" stop-color="#848490"/>
</linearGradient>
<linearGradient id="paint2_linear" x1="58.965" y1="-47" x2="58.965" y2="37.3384" gradientUnits="userSpaceOnUse">
<stop stop-color="#D9D9D9"/>
<stop offset="1" stop-color="#848490"/>
</linearGradient>
<linearGradient id="paint3_linear" x1="58.965" y1="-47" x2="58.965" y2="37.3384" gradientUnits="userSpaceOnUse">
<stop stop-color="#D9D9D9"/>
<stop offset="1" stop-color="#848490"/>
</linearGradient>
<linearGradient id="paint4_linear" x1="58.965" y1="-47" x2="58.965" y2="37.3384" gradientUnits="userSpaceOnUse">
<stop stop-color="#D9D9D9"/>
<stop offset="1" stop-color="#848490"/>
</linearGradient>
<linearGradient id="paint5_linear" x1="58.965" y1="-47" x2="58.965" y2="37.3384" gradientUnits="userSpaceOnUse">
<stop stop-color="#D9D9D9"/>
<stop offset="1" stop-color="#848490"/>
</linearGradient>
</defs>
</svg>
