<svg width="118" height="53" viewBox="0 0 118 53" fill="none" xmlns="http://www.w3.org/2000/svg">
<path d="M13.1978 15.012C13.1978 15.012 14.6663 9.86917 10.5386 5.20596C6.40333 0.539642 1.0009 0.301758 1.0009 0.301758C1.0009 0.301758 -0.568174 6.35508 3.45786 10.9039C7.4842 15.4564 13.1978 15.012 13.1978 15.012Z" fill="url(#paint0_linear)"/>
<path d="M10.3819 18.3288C15.4356 21.9557 15.1441 27.2972 15.1441 27.2972C15.1441 27.2972 9.67211 28.9998 4.73689 25.4674C-0.19127 21.9307 0.00100742 15.6761 0.00100742 15.6761C0.00100742 15.6761 5.32054 14.6988 10.3819 18.3288Z" fill="url(#paint1_linear)"/>
<path d="M21.412 38.8568C21.412 38.8568 20.0895 33.6747 14.1751 31.7585C8.25632 29.8352 3.48462 32.3839 3.48462 32.3839C3.48462 32.3839 5.18873 38.4044 10.9521 40.2807C16.7146 42.146 21.412 38.8568 21.412 38.8568Z" fill="url(#paint2_linear)"/>
<path d="M11.6625 45.1787C11.6625 45.1787 16.1014 42.0773 22.2019 43.273C28.3022 44.4649 30.2302 49.4535 30.2302 49.4535C30.2302 49.4535 25.9609 53.284 20.0105 52.1172C14.0675 50.9497 11.6625 45.1787 11.6625 45.1787Z" fill="url(#paint3_linear)"/>
<path d="M104.732 15.012C104.732 15.012 103.264 9.86917 107.391 5.20596C111.527 0.539642 116.929 0.301758 116.929 0.301758C116.929 0.301758 118.498 6.35508 114.472 10.9039C110.446 15.4564 104.732 15.012 104.732 15.012Z" fill="url(#paint4_linear)"/>
<path d="M107.548 18.3288C102.494 21.9557 102.786 27.2972 102.786 27.2972C102.786 27.2972 108.258 28.9998 113.193 25.4674C118.121 21.9307 117.929 15.6761 117.929 15.6761C117.929 15.6761 112.609 14.6988 107.548 18.3288Z" fill="url(#paint5_linear)"/>
<path d="M96.518 38.8568C96.518 38.8568 97.8404 33.6747 103.755 31.7585C109.674 29.8352 114.445 32.3839 114.445 32.3839C114.445 32.3839 112.741 38.4044 106.978 40.2807C101.215 42.146 96.518 38.8568 96.518 38.8568Z" fill="url(#paint6_linear)"/>
<path d="M106.267 45.1787C106.267 45.1787 101.829 42.0773 95.728 43.273C89.6277 44.4649 87.6997 49.4535 87.6997 49.4535C87.6997 49.4535 91.9691 53.284 97.9194 52.1172C103.862 50.9497 106.267 45.1787 106.267 45.1787Z" fill="url(#paint7_linear)"/>
<defs>
<linearGradient id="paint0_linear" x1="58.965" y1="-32" x2="58.965" y2="52.3384" gradientUnits="userSpaceOnUse">
<stop stop-color="#CD9386"/>
<stop offset="1" stop-color="#784F51"/>
</linearGradient>
<linearGradient id="paint1_linear" x1="58.965" y1="-32" x2="58.965" y2="52.3384" gradientUnits="userSpaceOnUse">
<stop stop-color="#CD9386"/>
<stop offset="1" stop-color="#784F51"/>
</linearGradient>
<linearGradient id="paint2_linear" x1="58.965" y1="-32" x2="58.965" y2="52.3384" gradientUnits="userSpaceOnUse">
<stop stop-color="#CD9386"/>
<stop offset="1" stop-color="#784F51"/>
</linearGradient>
<linearGradient id="paint3_linear" x1="58.965" y1="-32" x2="58.965" y2="52.3384" gradientUnits="userSpaceOnUse">
<stop stop-color="#CD9386"/>
<stop offset="1" stop-color="#784F51"/>
</linearGradient>
<linearGradient id="paint4_linear" x1="58.965" y1="-32" x2="58.965" y2="52.3384" gradientUnits="userSpaceOnUse">
<stop stop-color="#CD9386"/>
<stop offset="1" stop-color="#784F51"/>
</linearGradient>
<linearGradient id="paint5_linear" x1="58.965" y1="-32" x2="58.965" y2="52.3384" gradientUnits="userSpaceOnUse">
<stop stop-color="#CD9386"/>
<stop offset="1" stop-color="#784F51"/>
</linearGradient>
<linearGradient id="paint6_linear" x1="58.965" y1="-32" x2="58.965" y2="52.3384" gradientUnits="userSpaceOnUse">
<stop stop-color="#CD9386"/>
<stop offset="1" stop-color="#784F51"/>
</linearGradient>
<linearGradient id="paint7_linear" x1="58.965" y1="-32" x2="58.965" y2="52.3384" gradientUnits="userSpaceOnUse">
<stop stop-color="#CD9386"/>
<stop offset="1" stop-color="#784F51"/>
</linearGradient>
</defs>
</svg>
