<svg width="119" height="85" viewBox="0 0 119 85" fill="none" xmlns="http://www.w3.org/2000/svg">
<path d="M19.9111 9.86461C20.165 16.0978 15.7791 19.1258 15.7791 19.1258C15.7791 19.1258 11.0858 15.828 10.8384 9.75082C10.5936 3.66906 15.6271 0 15.6271 0C15.6271 0 19.6607 3.63036 19.9111 9.86461Z" fill="#FFCD45"/>
<path d="M19.9111 9.86461C20.165 16.0978 15.7791 19.1258 15.7791 19.1258C15.7791 19.1258 11.0858 15.828 10.8384 9.75082C10.5936 3.66906 15.6271 0 15.6271 0C15.6271 0 19.6607 3.63036 19.9111 9.86461Z" fill="url(#paint0_linear)"/>
<path d="M13.4692 34.1671C13.4692 34.1671 16.3852 29.6915 13.8098 24.0085C11.2273 18.3297 6.12978 16.5038 6.12978 16.5038C6.12978 16.5038 2.85257 21.8218 5.36809 27.3573C7.88023 32.8969 13.4692 34.1671 13.4692 34.1671Z" fill="#FFCD45"/>
<path d="M13.4692 34.1671C13.4692 34.1671 16.3852 29.6915 13.8098 24.0085C11.2273 18.3297 6.12978 16.5038 6.12978 16.5038C6.12978 16.5038 2.85257 21.8218 5.36809 27.3573C7.88023 32.8969 13.4692 34.1671 13.4692 34.1671Z" fill="url(#paint1_linear)"/>
<path d="M13.4981 47.012C13.4981 47.012 14.9666 41.8692 10.8389 37.206C6.70362 32.5397 1.30119 32.3018 1.30119 32.3018C1.30119 32.3018 -0.267881 38.3552 3.75816 42.904C7.78449 47.4565 13.4981 47.012 13.4981 47.012Z" fill="#FFCD45"/>
<path d="M13.4981 47.012C13.4981 47.012 14.9666 41.8692 10.8389 37.206C6.70362 32.5397 1.30119 32.3018 1.30119 32.3018C1.30119 32.3018 -0.267881 38.3552 3.75816 42.904C7.78449 47.4565 13.4981 47.012 13.4981 47.012Z" fill="url(#paint2_linear)"/>
<path d="M10.6822 50.3288C15.7359 53.9557 15.4444 59.2973 15.4444 59.2973C15.4444 59.2973 9.9724 60.9999 5.03719 57.4675C0.109023 53.9307 0.3013 47.6761 0.3013 47.6761C0.3013 47.6761 5.62083 46.6988 10.6822 50.3288Z" fill="#FFCD45"/>
<path d="M10.6822 50.3288C15.7359 53.9557 15.4444 59.2973 15.4444 59.2973C15.4444 59.2973 9.9724 60.9999 5.03719 57.4675C0.109023 53.9307 0.3013 47.6761 0.3013 47.6761C0.3013 47.6761 5.62083 46.6988 10.6822 50.3288Z" fill="url(#paint3_linear)"/>
<path d="M21.7123 70.8569C21.7123 70.8569 20.3898 65.6747 14.4754 63.7585C8.55661 61.8353 3.78491 64.384 3.78491 64.384C3.78491 64.384 5.48902 70.4045 11.2524 72.2808C17.0149 74.1461 21.7123 70.8569 21.7123 70.8569Z" fill="#FFCD45"/>
<path d="M21.7123 70.8569C21.7123 70.8569 20.3898 65.6747 14.4754 63.7585C8.55661 61.8353 3.78491 64.384 3.78491 64.384C3.78491 64.384 5.48902 70.4045 11.2524 72.2808C17.0149 74.1461 21.7123 70.8569 21.7123 70.8569Z" fill="url(#paint4_linear)"/>
<path d="M11.9628 77.1788C11.9628 77.1788 16.4016 74.0774 22.5022 75.273C28.6025 76.465 30.5305 81.4536 30.5305 81.4536C30.5305 81.4536 26.2612 85.2841 20.3108 84.1172C14.3678 82.9498 11.9628 77.1788 11.9628 77.1788Z" fill="#FFCD45"/>
<path d="M11.9628 77.1788C11.9628 77.1788 16.4016 74.0774 22.5022 75.273C28.6025 76.465 30.5305 81.4536 30.5305 81.4536C30.5305 81.4536 26.2612 85.2841 20.3108 84.1172C14.3678 82.9498 11.9628 77.1788 11.9628 77.1788Z" fill="url(#paint5_linear)"/>
<path d="M98.6195 9.86461C98.3655 16.0978 102.751 19.1258 102.751 19.1258C102.751 19.1258 107.445 15.828 107.692 9.75082C107.937 3.66906 102.903 0 102.903 0C102.903 0 98.8698 3.63036 98.6195 9.86461Z" fill="#FFCD45"/>
<path d="M98.6195 9.86461C98.3655 16.0978 102.751 19.1258 102.751 19.1258C102.751 19.1258 107.445 15.828 107.692 9.75082C107.937 3.66906 102.903 0 102.903 0C102.903 0 98.8698 3.63036 98.6195 9.86461Z" fill="url(#paint6_linear)"/>
<path d="M105.061 34.1671C105.061 34.1671 102.145 29.6915 104.721 24.0085C107.303 18.3297 112.401 16.5038 112.401 16.5038C112.401 16.5038 115.678 21.8218 113.162 27.3573C110.65 32.8969 105.061 34.1671 105.061 34.1671Z" fill="#FFCD45"/>
<path d="M105.061 34.1671C105.061 34.1671 102.145 29.6915 104.721 24.0085C107.303 18.3297 112.401 16.5038 112.401 16.5038C112.401 16.5038 115.678 21.8218 113.162 27.3573C110.65 32.8969 105.061 34.1671 105.061 34.1671Z" fill="url(#paint7_linear)"/>
<path d="M105.032 47.012C105.032 47.012 103.564 41.8692 107.692 37.206C111.827 32.5397 117.229 32.3018 117.229 32.3018C117.229 32.3018 118.798 38.3552 114.772 42.904C110.746 47.4565 105.032 47.012 105.032 47.012Z" fill="#FFCD45"/>
<path d="M105.032 47.012C105.032 47.012 103.564 41.8692 107.692 37.206C111.827 32.5397 117.229 32.3018 117.229 32.3018C117.229 32.3018 118.798 38.3552 114.772 42.904C110.746 47.4565 105.032 47.012 105.032 47.012Z" fill="url(#paint8_linear)"/>
<path d="M107.848 50.3288C102.795 53.9557 103.086 59.2973 103.086 59.2973C103.086 59.2973 108.558 60.9999 113.493 57.4675C118.422 53.9307 118.229 47.6761 118.229 47.6761C118.229 47.6761 112.91 46.6988 107.848 50.3288Z" fill="#FFCD45"/>
<path d="M107.848 50.3288C102.795 53.9557 103.086 59.2973 103.086 59.2973C103.086 59.2973 108.558 60.9999 113.493 57.4675C118.422 53.9307 118.229 47.6761 118.229 47.6761C118.229 47.6761 112.91 46.6988 107.848 50.3288Z" fill="url(#paint9_linear)"/>
<path d="M96.8183 70.8569C96.8183 70.8569 98.1407 65.6747 104.055 63.7585C109.974 61.8353 114.746 64.384 114.746 64.384C114.746 64.384 113.042 70.4045 107.278 72.2808C101.516 74.1461 96.8183 70.8569 96.8183 70.8569Z" fill="#FFCD45"/>
<path d="M96.8183 70.8569C96.8183 70.8569 98.1407 65.6747 104.055 63.7585C109.974 61.8353 114.746 64.384 114.746 64.384C114.746 64.384 113.042 70.4045 107.278 72.2808C101.516 74.1461 96.8183 70.8569 96.8183 70.8569Z" fill="url(#paint10_linear)"/>
<path d="M106.568 77.1788C106.568 77.1788 102.129 74.0774 96.0283 75.273C89.928 76.465 88 81.4536 88 81.4536C88 81.4536 92.2693 85.2841 98.2197 84.1172C104.163 82.9498 106.568 77.1788 106.568 77.1788Z" fill="#FFCD45"/>
<path d="M106.568 77.1788C106.568 77.1788 102.129 74.0774 96.0283 75.273C89.928 76.465 88 81.4536 88 81.4536C88 81.4536 92.2693 85.2841 98.2197 84.1172C104.163 82.9498 106.568 77.1788 106.568 77.1788Z" fill="url(#paint11_linear)"/>
<defs>
<linearGradient id="paint0_linear" x1="59.2653" y1="0" x2="59.2653" y2="84.3384" gradientUnits="userSpaceOnUse">
<stop stop-color="#FFCD45"/>
<stop offset="1" stop-color="#E48C3B"/>
</linearGradient>
<linearGradient id="paint1_linear" x1="59.2653" y1="0" x2="59.2653" y2="84.3384" gradientUnits="userSpaceOnUse">
<stop stop-color="#FFCD45"/>
<stop offset="1" stop-color="#E48C3B"/>
</linearGradient>
<linearGradient id="paint2_linear" x1="59.2653" y1="0" x2="59.2653" y2="84.3384" gradientUnits="userSpaceOnUse">
<stop stop-color="#FFCD45"/>
<stop offset="1" stop-color="#E48C3B"/>
</linearGradient>
<linearGradient id="paint3_linear" x1="59.2653" y1="0" x2="59.2653" y2="84.3384" gradientUnits="userSpaceOnUse">
<stop stop-color="#FFCD45"/>
<stop offset="1" stop-color="#E48C3B"/>
</linearGradient>
<linearGradient id="paint4_linear" x1="59.2653" y1="0" x2="59.2653" y2="84.3384" gradientUnits="userSpaceOnUse">
<stop stop-color="#FFCD45"/>
<stop offset="1" stop-color="#E48C3B"/>
</linearGradient>
<linearGradient id="paint5_linear" x1="59.2653" y1="0" x2="59.2653" y2="84.3384" gradientUnits="userSpaceOnUse">
<stop stop-color="#FFCD45"/>
<stop offset="1" stop-color="#E48C3B"/>
</linearGradient>
<linearGradient id="paint6_linear" x1="59.2653" y1="0" x2="59.2653" y2="84.3384" gradientUnits="userSpaceOnUse">
<stop stop-color="#FFCD45"/>
<stop offset="1" stop-color="#E48C3B"/>
</linearGradient>
<linearGradient id="paint7_linear" x1="59.2653" y1="0" x2="59.2653" y2="84.3384" gradientUnits="userSpaceOnUse">
<stop stop-color="#FFCD45"/>
<stop offset="1" stop-color="#E48C3B"/>
</linearGradient>
<linearGradient id="paint8_linear" x1="59.2653" y1="0" x2="59.2653" y2="84.3384" gradientUnits="userSpaceOnUse">
<stop stop-color="#FFCD45"/>
<stop offset="1" stop-color="#E48C3B"/>
</linearGradient>
<linearGradient id="paint9_linear" x1="59.2653" y1="0" x2="59.2653" y2="84.3384" gradientUnits="userSpaceOnUse">
<stop stop-color="#FFCD45"/>
<stop offset="1" stop-color="#E48C3B"/>
</linearGradient>
<linearGradient id="paint10_linear" x1="59.2653" y1="0" x2="59.2653" y2="84.3384" gradientUnits="userSpaceOnUse">
<stop stop-color="#FFCD45"/>
<stop offset="1" stop-color="#E48C3B"/>
</linearGradient>
<linearGradient id="paint11_linear" x1="59.2653" y1="0" x2="59.2653" y2="84.3384" gradientUnits="userSpaceOnUse">
<stop stop-color="#FFCD45"/>
<stop offset="1" stop-color="#E48C3B"/>
</linearGradient>
</defs>
</svg>
