<svg width="1440" height="900" viewBox="0 0 1440 900" fill="none" xmlns="http://www.w3.org/2000/svg">
<g filter="url(#filter0_f)">
<path d="M356.818 224.961L-24 535V328.308L97.7143 248.03L265.532 152.988L303.338 103.16L280.286 152.988L399.234 143.761L443.493 121.615L451.792 74.5557L508.039 -6.64487L548.61 -62.9317L686 -86L667.558 -33.4042L592.87 50.5646L469.312 152.988L356.818 224.961Z" fill="url(#paint0_linear)" style="mix-blend-mode:lighten"/>
</g>
<g filter="url(#filter1_f)">
<path d="M978 -22C982 -38.8 582.667 602 382.5 924.5L750.5 909C824.667 605.667 974 -5.20001 978 -22Z" fill="url(#paint1_linear)" fill-opacity="0.5" style="mix-blend-mode:lighten"/>
</g>
<g filter="url(#filter2_f)">
<path d="M1325.91 865.039C1308.88 887.07 1274.56 935.122 1273.57 951.083L1479.21 986L1549 888.733L1464.25 515.874L1273.57 392.419L1499.15 367.479L1464.25 254L1229.95 286.422L1043 403.642V480.957L1325.91 865.039Z" fill="url(#paint2_linear)" style="mix-blend-mode:lighten"/>
</g>
<g filter="url(#filter3_f)">
<path d="M-146.451 865.118L79.6666 734.569L305.784 865.118L305.784 1126.22L79.6666 1256.76L-146.451 1126.22L-146.451 865.118Z" fill="url(#paint3_linear)" fill-opacity="0.5"/>
</g>
<defs>
<filter id="filter0_f" x="-36" y="-98" width="734" height="645" filterUnits="userSpaceOnUse" color-interpolation-filters="sRGB">
<feFlood flood-opacity="0" result="BackgroundImageFix"/>
<feBlend mode="normal" in="SourceGraphic" in2="BackgroundImageFix" result="shape"/>
<feGaussianBlur stdDeviation="6" result="effect1_foregroundBlur"/>
</filter>
<filter id="filter1_f" x="370.5" y="-34.324" width="619.53" height="970.824" filterUnits="userSpaceOnUse" color-interpolation-filters="sRGB">
<feFlood flood-opacity="0" result="BackgroundImageFix"/>
<feBlend mode="normal" in="SourceGraphic" in2="BackgroundImageFix" result="shape"/>
<feGaussianBlur stdDeviation="6" result="effect1_foregroundBlur"/>
</filter>
<filter id="filter2_f" x="1031" y="242" width="530" height="756" filterUnits="userSpaceOnUse" color-interpolation-filters="sRGB">
<feFlood flood-opacity="0" result="BackgroundImageFix"/>
<feBlend mode="normal" in="SourceGraphic" in2="BackgroundImageFix" result="shape"/>
<feGaussianBlur stdDeviation="6" result="effect1_foregroundBlur"/>
</filter>
<filter id="filter3_f" x="-267.51" y="661.294" width="694.353" height="668.745" filterUnits="userSpaceOnUse" color-interpolation-filters="sRGB">
<feFlood flood-opacity="0" result="BackgroundImageFix"/>
<feBlend mode="normal" in="SourceGraphic" in2="BackgroundImageFix" result="shape"/>
<feGaussianBlur stdDeviation="4" result="effect1_foregroundBlur"/>
</filter>
<linearGradient id="paint0_linear" x1="691.5" y1="-61" x2="-15.5" y2="432.5" gradientUnits="userSpaceOnUse">
<stop offset="0.369792" stop-color="#924F7B"/>
<stop offset="1" stop-color="#734651" stop-opacity="0"/>
</linearGradient>
<linearGradient id="paint1_linear" x1="727.931" y1="-10.036" x2="670.395" y2="923.892" gradientUnits="userSpaceOnUse">
<stop stop-color="#9A4C70"/>
<stop offset="1" stop-color="#9A4C70" stop-opacity="0"/>
</linearGradient>
<linearGradient id="paint2_linear" x1="1336.5" y1="263.5" x2="1296" y2="986" gradientUnits="userSpaceOnUse">
<stop stop-color="#9A4C70"/>
<stop offset="1" stop-color="#9A4C70" stop-opacity="0"/>
</linearGradient>
<linearGradient id="paint3_linear" x1="70.5" y1="738.5" x2="101.5" y2="1018.5" gradientUnits="userSpaceOnUse">
<stop stop-color="#D8AE90"/>
<stop offset="1" stop-color="#D89490" stop-opacity="0"/>
</linearGradient>
</defs>
</svg>
